<svg width="31" height="20" viewBox="0 0 31 20" fill="none" xmlns="http://www.w3.org/2000/svg">
<path d="M30.9716 19.6287C30.9885 19.577 31 19.5225 31 19.4651V0.534146C31 0.47642 30.9885 0.421544 30.9712 0.369519C30.9687 0.362393 30.9673 0.355265 30.9644 0.348139C30.9414 0.287206 30.9076 0.23233 30.8651 0.184225C30.8623 0.181018 30.8619 0.177099 30.859 0.173892C30.8572 0.17211 30.8551 0.171397 30.8533 0.169615C30.808 0.121866 30.7544 0.0833823 30.6943 0.0545192C30.6897 0.0523812 30.6861 0.0495303 30.6814 0.0473923C30.6246 0.0220925 30.5627 0.00783945 30.4976 0.00356343C30.4912 0.00320709 30.485 0.00178137 30.4786 0.00178137C30.4725 0.00142504 30.4671 0 30.4609 0H0.539771C0.533658 0 0.527904 0.00142504 0.521791 0.00178137C0.516037 0.00213771 0.510283 0.00320709 0.50453 0.00356343C0.438721 0.00783945 0.37579 0.0224492 0.318253 0.0481053C0.314657 0.0495306 0.31178 0.0520247 0.308184 0.0534501C0.247051 0.0823132 0.19275 0.12151 0.14708 0.169971C0.145282 0.171753 0.143124 0.17211 0.141326 0.173892C0.138449 0.176742 0.138089 0.180662 0.135213 0.183869C0.0927788 0.231974 0.0586161 0.287206 0.0356012 0.348139C0.0327243 0.355265 0.0312859 0.362392 0.0287686 0.369875C0.0115074 0.4219 0 0.476776 0 0.534502V19.4659C0 19.5243 0.011867 19.5799 0.0294878 19.6326C0.032005 19.6397 0.0334435 19.6465 0.0359608 19.6536C0.0593353 19.7149 0.0938575 19.7702 0.136651 19.8183C0.139168 19.8211 0.139887 19.8247 0.142405 19.8275C0.144562 19.83 0.147439 19.8315 0.149956 19.834C0.167577 19.8521 0.186996 19.8682 0.207134 19.8838C0.216124 19.8906 0.224036 19.8988 0.233385 19.9052C0.25712 19.9216 0.282652 19.9348 0.308903 19.9469C0.315376 19.9498 0.32113 19.9544 0.327603 19.9569C0.392692 19.9843 0.464254 20 0.539412 20H30.4602C30.5354 20 30.607 19.9847 30.672 19.9569C30.6821 19.9526 30.6915 19.9462 30.7012 19.9412C30.7235 19.9302 30.7458 19.9188 30.7663 19.9049C30.777 19.8974 30.7868 19.8878 30.7972 19.8796C30.8155 19.865 30.8335 19.8503 30.8493 19.8336C30.8522 19.8307 30.8554 19.8286 30.8583 19.8258C30.8612 19.8225 30.8619 19.8183 30.8648 19.8151C30.9069 19.7673 30.9407 19.7124 30.9637 19.6519C30.9673 19.644 30.9691 19.6365 30.9716 19.6287ZM1.07918 1.7464L10.1582 9.96383L1.07918 18.2468V1.7464ZM19.6875 9.56117C19.6501 9.58541 19.6105 9.60572 19.5792 9.63992C19.5673 9.65275 19.5634 9.6695 19.553 9.68304L15.5002 13.3511L1.93002 1.06865H29.0703L19.6875 9.56117ZM10.958 10.6875L15.1363 14.4693C15.2395 14.5627 15.3696 14.6094 15.5002 14.6094C15.6307 14.6094 15.7609 14.5627 15.8637 14.4693L19.9902 10.7346L29.0678 18.931H1.9221L10.958 10.6875ZM20.7904 10.0105L29.9212 1.7464V18.2554L20.7904 10.0105Z" fill="white"/>
</svg>
