<svg width="20" height="20" viewBox="0 0 20 20" fill="none" xmlns="http://www.w3.org/2000/svg">
<path d="M15.353 9.9436C15.353 6.91513 12.8891 4.45117 9.86054 4.45117C6.83151 4.45117 4.36719 6.91513 4.36719 9.9436C4.36719 12.9723 6.83151 15.4363 9.86054 15.4363C12.8891 15.4363 15.353 12.9723 15.353 9.9436ZM5.13347 9.9436C5.13347 7.33771 7.25407 5.21749 9.86054 5.21749C12.4666 5.21749 14.5867 7.33748 14.5867 9.9436C14.5867 12.5497 12.4666 14.6699 9.86054 14.6699C7.25407 14.6699 5.13347 12.5497 5.13347 9.9436Z" fill="white"/>
<path d="M9.85959 3.63595C10.0712 3.63595 10.2426 3.46454 10.2426 3.2529V0.383044C10.2426 0.17141 10.0712 0 9.85959 0C9.64797 0 9.47656 0.17141 9.47656 0.383044V3.2529C9.47656 3.46454 9.64797 3.63595 9.85959 3.63595Z" fill="white"/>
<path d="M12.2673 4.07836C12.3125 4.09573 12.3589 4.10396 12.4046 4.10396C12.5587 4.10396 12.7038 4.01048 12.7623 3.85827L13.7923 1.17925C13.8682 0.981785 13.7697 0.760095 13.5722 0.683989C13.3745 0.607655 13.1531 0.706615 13.077 0.904079L12.047 3.5831C11.9713 3.78079 12.0698 4.00248 12.2673 4.07836Z" fill="white"/>
<path d="M14.8539 5.49781C14.9604 5.49781 15.0664 5.4537 15.1421 5.36708L17.033 3.21006C17.1724 3.05099 17.1566 2.80896 16.9974 2.66932C16.8385 2.5299 16.5963 2.54544 16.4566 2.70497L14.5657 4.86199C14.4263 5.02106 14.4421 5.26309 14.6014 5.40273C14.674 5.4665 14.7641 5.49781 14.8539 5.49781Z" fill="white"/>
<path d="M15.867 7.30393C15.9219 7.46232 16.0702 7.56173 16.229 7.56173C16.2706 7.56173 16.3129 7.55488 16.3542 7.54071L19.0686 6.6007C19.2686 6.53145 19.3746 6.31318 19.3054 6.11343C19.2361 5.91346 19.0174 5.80741 18.8181 5.87666L16.1038 6.81644C15.9036 6.88592 15.7975 7.10418 15.867 7.30393Z" fill="white"/>
<path d="M19.6159 9.78906H16.7444C16.5327 9.78906 16.3613 9.96047 16.3613 10.1721C16.3613 10.3837 16.5327 10.5551 16.7444 10.5551H19.6159C19.8276 10.5551 19.9992 10.3837 19.9992 10.1721C19.9992 9.96047 19.8276 9.78906 19.6159 9.78906Z" fill="white"/>
<path d="M9.85959 16.3066C9.64797 16.3066 9.47656 16.478 9.47656 16.6897V19.5598C9.47656 19.7714 9.64797 19.9428 9.85959 19.9428C10.0712 19.9428 10.2426 19.7714 10.2426 19.5598V16.6897C10.2426 16.4783 10.0712 16.3066 9.85959 16.3066Z" fill="white"/>
<path d="M12.7624 16.0838C12.6865 15.8863 12.4648 15.7873 12.2672 15.8637C12.0697 15.9398 11.9712 16.1612 12.0471 16.3589L13.0771 19.038C13.1356 19.1904 13.281 19.2836 13.4348 19.2836C13.4805 19.2836 13.5269 19.2754 13.5721 19.258C13.7696 19.1819 13.8681 18.9605 13.7922 18.7628L12.7624 16.0838Z" fill="white"/>
<path d="M15.142 14.5759C15.0024 14.4166 14.7604 14.4011 14.6013 14.5402C14.4422 14.6797 14.4262 14.9217 14.5656 15.081L16.4566 17.2385C16.5324 17.3248 16.6382 17.3692 16.7447 17.3692C16.8346 17.3692 16.9246 17.3379 16.9971 17.2741C17.1561 17.1347 17.1721 16.8927 17.0327 16.7334L15.142 14.5759Z" fill="white"/>
<path d="M19.0687 13.3425L16.3544 12.4021C16.1546 12.3328 15.9364 12.4386 15.8669 12.6386C15.7977 12.8386 15.9035 13.0569 16.1035 13.1261L18.8178 14.0666C18.8594 14.081 18.9017 14.0878 18.9433 14.0878C19.1021 14.0878 19.2504 13.9884 19.3053 13.83C19.3745 13.6301 19.2687 13.4118 19.0687 13.3425Z" fill="white"/>
<path d="M7.23553 3.85974C7.29404 4.01195 7.43939 4.10543 7.59319 4.10543C7.6389 4.10543 7.68529 4.0972 7.73077 4.07983C7.92823 4.00372 8.02673 3.78203 7.95086 3.58457L6.92061 0.906005C6.84473 0.708769 6.62351 0.60958 6.42537 0.685915C6.22791 0.762021 6.12941 0.983711 6.20529 1.18117L7.23553 3.85974Z" fill="white"/>
<path d="M4.85741 5.36932C4.93328 5.45571 5.03909 5.50005 5.14559 5.50005C5.23541 5.50005 5.32545 5.46874 5.3979 5.40497C5.55696 5.26556 5.57296 5.02353 5.43355 4.86423L3.5424 2.70675C3.40277 2.54745 3.16074 2.53191 3.00168 2.6711C2.84262 2.81051 2.82662 3.05254 2.96603 3.21184L4.85741 5.36932Z" fill="white"/>
<path d="M0.929945 6.60268L3.64428 7.54223C3.68588 7.5564 3.72816 7.56326 3.76952 7.56326C3.92836 7.56326 4.07668 7.46384 4.13153 7.30546C4.20077 7.10548 4.09473 6.88722 3.89476 6.81797L1.18042 5.87841C0.980452 5.80962 0.762198 5.91544 0.692952 6.11519C0.623933 6.31516 0.729975 6.5332 0.929945 6.60268Z" fill="white"/>
<path d="M3.63786 10.1721C3.63786 9.96047 3.46623 9.78906 3.2546 9.78906H0.383029C0.171403 9.78906 0 9.96047 0 10.1721C0 10.3837 0.171403 10.5552 0.383029 10.5552H3.2546C3.46623 10.5552 3.63786 10.3835 3.63786 10.1721Z" fill="white"/>
<path d="M7.73077 15.8655C7.53355 15.7894 7.31164 15.8882 7.23553 16.0856L6.20529 18.7649C6.12941 18.9623 6.22791 19.184 6.42537 19.2601C6.47062 19.2775 6.51701 19.2857 6.56272 19.2857C6.71675 19.2857 6.86187 19.1923 6.92038 19.04L7.95063 16.3608C8.02696 16.1633 7.92846 15.9416 7.73077 15.8655Z" fill="white"/>
<path d="M4.85728 14.5779L2.96613 16.7347C2.82672 16.8937 2.84249 17.1358 3.00155 17.2754C3.07423 17.3392 3.16427 17.3705 3.25409 17.3705C3.36059 17.3705 3.46663 17.3264 3.54227 17.24L5.43342 15.0832C5.57283 14.9241 5.55706 14.6821 5.398 14.5425C5.23894 14.403 4.99691 14.4184 4.85728 14.5779Z" fill="white"/>
<path d="M4.13164 12.6389C4.06239 12.4389 3.8446 12.3327 3.64417 12.4021L0.929831 13.3417C0.729861 13.4109 0.623819 13.6292 0.693066 13.8292C0.747915 13.9876 0.896465 14.087 1.05507 14.087C1.09666 14.087 1.13894 14.0801 1.18031 14.066L3.89465 13.1264C4.09485 13.0572 4.20089 12.8389 4.13164 12.6389Z" fill="white"/>
</svg>
