<svg width="23" height="20" viewBox="0 0 23 20" fill="none" xmlns="http://www.w3.org/2000/svg">
<path d="M22.8894 14.4939C22.8894 14.4669 22.8894 14.4669 22.8894 14.4399V4.37247C22.8894 1.94332 20.936 0 18.5546 0H14.9957C14.7816 0 14.5943 0.188934 14.5943 0.404858C14.5943 0.620783 14.7816 0.809716 14.9957 0.809716H18.5546C20.5079 0.809716 22.0866 2.40216 22.0866 4.37247V12.7126C21.4712 11.8758 20.5614 11.2821 19.5446 11.0121C18.3672 10.7153 17.1631 10.9042 16.1196 11.552C15.076 12.1727 14.3535 13.1714 14.0859 14.359C14.0324 14.5749 14.0057 14.8178 13.9789 15.0337H9.00186C8.94834 14.359 8.73427 13.6842 8.35966 13.0634C7.74422 12.0108 6.75416 11.2821 5.5768 11.0121C4.39944 10.7153 3.19531 10.9042 2.15174 11.552C1.67009 11.8489 1.24196 12.2537 0.894103 12.6856V4.37247C0.894103 2.40216 2.47284 0.809716 4.42619 0.809716H8.0118C8.22587 0.809716 8.41317 0.620783 8.41317 0.404858C8.41317 0.188934 8.22587 0 8.0118 0H4.45295C2.04471 0 0.118114 1.97031 0.118114 4.37247V14.413C-0.44381 16.8421 1.05465 19.2713 3.43614 19.865C3.784 19.946 4.15861 20 4.50647 20C6.5401 20 8.38642 18.5965 8.89482 16.5182C8.94834 16.3023 8.9751 16.0594 9.00186 15.8435H14.0057C14.0592 16.5182 14.2732 17.193 14.6479 17.8138C15.2633 18.8664 16.2533 19.5951 17.4307 19.865C17.7786 19.946 18.1532 20 18.501 20C20.5347 20 22.381 18.5965 22.8894 16.5182C23.0232 15.8435 23.0499 15.1417 22.8894 14.4939ZM8.11883 16.3293C7.63719 18.3266 5.63032 19.5682 3.62345 19.0823C1.64333 18.5965 0.412455 16.5722 0.894103 14.5479C1.13493 13.5762 1.72361 12.7665 2.57987 12.2267C3.16856 11.8758 3.83751 11.6869 4.50647 11.6869C4.80081 11.6869 5.09515 11.7139 5.38949 11.7949C6.35279 12.0378 7.15554 12.6316 7.6907 13.4953C8.19911 14.332 8.35966 15.3576 8.11883 16.3293ZM22.0866 16.3293C21.605 18.3266 19.5981 19.5682 17.5913 19.0823C16.628 18.8394 15.8252 18.2456 15.29 17.3819C14.9422 16.7881 14.7549 16.1404 14.7549 15.4656V15.4386V15.4116C14.7549 15.1147 14.7816 14.8448 14.8619 14.5479C15.1027 13.5762 15.6914 12.7665 16.5477 12.2267C17.1364 11.8758 17.8053 11.6869 18.4743 11.6869C18.7686 11.6869 19.063 11.7139 19.3573 11.7949C20.3206 12.0378 21.1234 12.6316 21.6585 13.4953C22.1669 14.332 22.3275 15.3576 22.0866 16.3293Z" fill="white"/>
</svg>
