<svg width="40" height="40" viewBox="0 0 40 40" fill="none" xmlns="http://www.w3.org/2000/svg">
<rect x="0.5" y="0.5" width="39" height="39" rx="19.5" stroke="#105980"/>
<path d="M15.7748 18.2578H13.4627C13.2663 18.2578 13.1074 18.4167 13.1074 18.6131V20.9251C13.1074 21.1213 13.2663 21.2804 13.4627 21.2804H15.7748C15.9711 21.2804 16.13 21.1213 16.13 20.9251V18.6131C16.13 18.417 15.9711 18.2578 15.7748 18.2578ZM15.4195 20.5699H13.818V18.9683H15.4195V20.5699Z" fill="#105980"/>
<path d="M21.1673 18.2578H18.8553C18.6589 18.2578 18.5 18.4167 18.5 18.6131V20.9251C18.5 21.1213 18.6589 21.2804 18.8553 21.2804H21.1673C21.3634 21.2804 21.5226 21.1213 21.5226 20.9251V18.6131C21.5226 18.417 21.3634 18.2578 21.1673 18.2578ZM20.8121 20.5699H19.2105V18.9683H20.8121V20.5699Z" fill="#105980"/>
<path d="M26.3939 18.2578H24.0818C23.8857 18.2578 23.7266 18.4167 23.7266 18.6131V20.9251C23.7266 21.1213 23.8857 21.2804 24.0818 21.2804H26.3939C26.59 21.2804 26.7492 21.1213 26.7492 20.9251V18.6131C26.7492 18.417 26.59 18.2578 26.3939 18.2578ZM26.0386 20.5699H24.4371V18.9683H26.0386V20.5699Z" fill="#105980"/>
<path d="M15.7748 23.5234H13.4627C13.2663 23.5234 13.1074 23.6826 13.1074 23.8787V26.1908C13.1074 26.3869 13.2663 26.546 13.4627 26.546H15.7748C15.9711 26.546 16.13 26.3869 16.13 26.1908V23.8787C16.13 23.6826 15.9711 23.5234 15.7748 23.5234ZM15.4195 25.8355H13.818V24.234H15.4195V25.8355Z" fill="#105980"/>
<path d="M21.1673 23.5234H18.8553C18.6589 23.5234 18.5 23.6826 18.5 23.8787V26.1908C18.5 26.3869 18.6589 26.546 18.8553 26.546H21.1673C21.3634 26.546 21.5226 26.3869 21.5226 26.1908V23.8787C21.5226 23.6826 21.3634 23.5234 21.1673 23.5234ZM20.8121 25.8355H19.2105V24.234H20.8121V25.8355Z" fill="#105980"/>
<path d="M26.3939 23.5234H24.0818C23.8857 23.5234 23.7266 23.6826 23.7266 23.8787V26.1908C23.7266 26.3869 23.8857 26.546 24.0818 26.546H26.3939C26.59 26.546 26.7492 26.3869 26.7492 26.1908V23.8787C26.7492 23.6826 26.59 23.5234 26.3939 23.5234ZM26.0386 25.8355H24.4371V24.234H26.0386V25.8355Z" fill="#105980"/>
<path d="M29.2067 11.3758H26.8603C26.8572 11.3758 26.8546 11.3765 26.8515 11.3768V10.9035C26.8515 10.1295 26.222 9.5 25.448 9.5C24.6739 9.5 24.0444 10.1298 24.0444 10.9035V11.3758H21.4005V10.9035C21.4005 10.1295 20.771 9.5 19.997 9.5C19.223 9.5 18.5935 10.1298 18.5935 10.9035V11.3758H15.9493V10.9035C15.9493 10.1295 15.3198 9.5 14.5458 9.5C13.7718 9.5 13.1423 10.1298 13.1423 10.9035V11.376C13.1411 11.376 13.1399 11.3758 13.1387 11.3758H10.7928C10.5964 11.3758 10.4375 11.5347 10.4375 11.7311V30.1447C10.4375 30.3408 10.5964 30.5 10.7928 30.5H29.2067C29.4028 30.5 29.5619 30.3408 29.5619 30.1447V11.7311C29.5619 11.5347 29.4028 11.3758 29.2067 11.3758ZM24.755 10.9035C24.755 10.5213 25.0657 10.2105 25.448 10.2105C25.8302 10.2105 26.141 10.5213 26.141 10.9035V12.8639C26.141 13.2459 25.8302 13.5569 25.448 13.5569C25.0657 13.5569 24.755 13.2462 24.755 12.8639V10.9035ZM19.997 10.2105C20.379 10.2105 20.69 10.5213 20.69 10.9035V12.8639C20.69 13.2459 20.3793 13.5569 19.997 13.5569C19.6147 13.5569 19.304 13.2462 19.304 12.8639V11.7642C19.3049 11.7531 19.3073 11.7424 19.3073 11.7308C19.3073 11.7192 19.3049 11.7086 19.304 11.6974V10.9035C19.304 10.5213 19.6147 10.2105 19.997 10.2105ZM13.8528 10.9035C13.8528 10.5213 14.1635 10.2105 14.5458 10.2105C14.9278 10.2105 15.2388 10.5213 15.2388 10.9035V12.8639C15.2388 13.2459 14.9281 13.5569 14.5458 13.5569C14.1635 13.5569 13.8528 13.2462 13.8528 12.8639V10.9035ZM28.8514 29.7895H11.148V12.0863H13.1387C13.1399 12.0863 13.1411 12.0861 13.1423 12.0861V12.8641C13.1423 13.6381 13.772 14.2677 14.5458 14.2677C15.3196 14.2677 15.9493 13.6381 15.9493 12.8641V12.0866H18.5935V12.8641C18.5935 13.6381 19.2232 14.2677 19.997 14.2677C20.7708 14.2677 21.4005 13.6381 21.4005 12.8641V12.0866H24.0444V12.8641C24.0444 13.6381 24.6739 14.2677 25.448 14.2677C26.222 14.2677 26.8515 13.6381 26.8515 12.8641V12.0854C26.8546 12.0854 26.8572 12.0863 26.8603 12.0863H28.8514V29.7895Z" fill="#105980"/>
</svg>
