<svg width="17" height="18" viewBox="0 0 17 18" fill="none" xmlns="http://www.w3.org/2000/svg">
<path d="M4.57535 7.50391H2.59358C2.42528 7.50391 2.28906 7.64013 2.28906 7.80842V9.79019C2.28906 9.95829 2.42528 10.0947 2.59358 10.0947H4.57535C4.74364 10.0947 4.87986 9.95829 4.87986 9.79019V7.80842C4.87986 7.64033 4.74364 7.50391 4.57535 7.50391ZM4.27084 9.48568H2.89809V8.11293H4.27084V9.48568Z" fill="black"/>
<path d="M9.19644 7.50391H7.21467C7.04638 7.50391 6.91016 7.64013 6.91016 7.80842V9.79019C6.91016 9.95829 7.04638 10.0947 7.21467 10.0947H9.19644C9.36454 10.0947 9.50096 9.95829 9.50096 9.79019V7.80842C9.50096 7.64033 9.36454 7.50391 9.19644 7.50391ZM8.89193 9.48568H7.51918V8.11293H8.89193V9.48568Z" fill="black"/>
<path d="M13.6769 7.50391H11.6951C11.527 7.50391 11.3906 7.64013 11.3906 7.80842V9.79019C11.3906 9.95829 11.527 10.0947 11.6951 10.0947H13.6769C13.845 10.0947 13.9814 9.95829 13.9814 9.79019V7.80842C13.9814 7.64033 13.845 7.50391 13.6769 7.50391ZM13.3724 9.48568H11.9997V8.11293H13.3724V9.48568Z" fill="black"/>
<path d="M4.57535 12.0195H2.59358C2.42528 12.0195 2.28906 12.156 2.28906 12.324V14.3058C2.28906 14.4739 2.42528 14.6103 2.59358 14.6103H4.57535C4.74364 14.6103 4.87986 14.4739 4.87986 14.3058V12.324C4.87986 12.156 4.74364 12.0195 4.57535 12.0195ZM4.27084 14.0013H2.89809V12.6286H4.27084V14.0013Z" fill="black"/>
<path d="M9.19644 12.0195H7.21467C7.04638 12.0195 6.91016 12.156 6.91016 12.324V14.3058C6.91016 14.4739 7.04638 14.6103 7.21467 14.6103H9.19644C9.36454 14.6103 9.50096 14.4739 9.50096 14.3058V12.324C9.50096 12.156 9.36454 12.0195 9.19644 12.0195ZM8.89193 14.0013H7.51918V12.6286H8.89193V14.0013Z" fill="black"/>
<path d="M13.6769 12.0195H11.6951C11.527 12.0195 11.3906 12.156 11.3906 12.324V14.3058C11.3906 14.4739 11.527 14.6103 11.6951 14.6103H13.6769C13.845 14.6103 13.9814 14.4739 13.9814 14.3058V12.324C13.9814 12.156 13.845 12.0195 13.6769 12.0195ZM13.3724 14.0013H11.9997V12.6286H13.3724V14.0013Z" fill="black"/>
<path d="M16.0879 1.60783H14.0766C14.074 1.60783 14.0718 1.60844 14.0691 1.60864V1.20303C14.0691 0.539598 13.5295 0 12.8661 0C12.2027 0 11.6631 0.539801 11.6631 1.20303V1.60783H9.39688V1.20303C9.39688 0.539598 8.85728 0 8.19385 0C7.53042 0 6.99082 0.539801 6.99082 1.20303V1.60783H4.72443V1.20303C4.72443 0.539598 4.18483 0 3.5214 0C2.85796 0 2.31836 0.539801 2.31836 1.20303V1.60803C2.31735 1.60803 2.31633 1.60783 2.31532 1.60783H0.304514C0.136219 1.60783 0 1.74405 0 1.91235V17.6955C0 17.8636 0.136219 18 0.304514 18H16.0879C16.256 18 16.3924 17.8636 16.3924 17.6955V1.91235C16.3924 1.74405 16.256 1.60783 16.0879 1.60783ZM12.2721 1.20303C12.2721 0.875375 12.5384 0.609027 12.8661 0.609027C13.1938 0.609027 13.4601 0.875375 13.4601 1.20303V2.88334C13.4601 3.21079 13.1938 3.47734 12.8661 3.47734C12.5384 3.47734 12.2721 3.21099 12.2721 2.88334V1.20303ZM8.19385 0.609027C8.52131 0.609027 8.78786 0.875375 8.78786 1.20303V2.88334C8.78786 3.21079 8.52151 3.47734 8.19385 3.47734C7.86619 3.47734 7.59985 3.21099 7.59985 2.88334V1.94077C7.60066 1.93123 7.60269 1.92209 7.60269 1.91214C7.60269 1.90219 7.60066 1.89306 7.59985 1.88352V1.20303C7.59985 0.875375 7.86619 0.609027 8.19385 0.609027ZM2.92739 1.20303C2.92739 0.875375 3.19374 0.609027 3.5214 0.609027C3.84885 0.609027 4.1154 0.875375 4.1154 1.20303V2.88334C4.1154 3.21079 3.84905 3.47734 3.5214 3.47734C3.19374 3.47734 2.92739 3.21099 2.92739 2.88334V1.20303ZM15.7833 17.391H0.609027V2.21686H2.31532C2.31633 2.21686 2.31735 2.21666 2.31836 2.21666V2.88354C2.31836 3.54697 2.85816 4.08657 3.5214 4.08657C4.18463 4.08657 4.72443 3.54697 4.72443 2.88354V2.21706H6.99082V2.88354C6.99082 3.54697 7.53062 4.08657 8.19385 4.08657C8.85708 4.08657 9.39688 3.54697 9.39688 2.88354V2.21706H11.6631V2.88354C11.6631 3.54697 12.2027 4.08657 12.8661 4.08657C13.5295 4.08657 14.0691 3.54697 14.0691 2.88354V2.21605C14.0718 2.21605 14.074 2.21686 14.0766 2.21686H15.7833V17.391Z" fill="black"/>
</svg>
