<svg width="631" height="327" viewBox="0 0 631 327" fill="none" xmlns="http://www.w3.org/2000/svg">
<path d="M86.175 57.4629C110.489 87.0525 249.848 103.434 331.964 104.674C430.515 106.144 585.544 104.299 628.205 65.5669C630.439 71.7097 626.323 79.41 624.588 86.2162C597.217 122.9 479.114 127.428 400.468 131.322C315.353 129.735 230.914 127.947 161.176 110.759C123.455 101.242 92.9077 90.3691 88.2036 74.5937C87.9096 70.9888 85.8516 62.9425 86.175 57.4629Z" stroke="white" stroke-linecap="round" stroke-linejoin="round"/>
<path d="M87.2607 65.4756C123.437 86.1776 171.41 97.5257 220.716 103.996C267.331 110.113 315.183 111.878 355.453 113.049L363.404 113.276C370.754 113.478 377.839 113.68 384.511 113.91H384.512C436.545 115.584 488.881 113.045 533.108 106.031C572.74 99.7409 606.965 89.1286 627.4 75.4697C627.25 76.0038 627.07 76.622 626.8 77.5635C606.271 91.2061 573.085 101.111 533.334 107.408C489.036 114.439 436.589 116.977 384.456 115.305H384.457C377.696 115.074 370.659 114.9 363.375 114.67H363.373C321.562 113.487 270.768 112.046 221.305 105.68C171.928 99.3246 123.929 88.0671 87.5391 67.2979C87.4223 66.5312 87.3457 66.0317 87.2607 65.4756Z" stroke="white"/>
<path d="M86.1735 57.4619C70.0032 13.164 257.285 1.80108 341.753 0.560964C436.041 -0.823346 650.107 21.3833 628.203 65.5659C609.798 81.8603 575.899 90.1085 538.59 95.8188C525.154 97.8664 510.983 99.3661 496.812 100.577C471.439 102.74 445.802 103.865 422.605 104.442C412.432 104.701 402.847 104.73 393.88 104.903C356.512 105.192 319.791 105.221 282.864 102.538C251.817 100.289 220.917 97.2031 190.252 92.1562C162.674 87.5706 138.83 82.5525 118.955 75.7175C105.137 70.9301 92.3182 64.9314 86.1735 57.4619Z" stroke="white" stroke-linecap="round" stroke-linejoin="round"/>
<path d="M115.369 83.9101L124.425 87.1113V74.566L181.138 55.2433L221.153 46.5049L221.505 42.0059L171.818 51.8402L117.104 71.0764L116.869 80.7954L115.369 82.4104V83.9101Z" stroke="white" stroke-linecap="round" stroke-linejoin="round"/>
<path d="M127.096 73.6425L181.134 55.2427L221.148 46.5042L230.439 44.4277L230.027 46.6484L185.044 55.8771L160.26 63.7504L127.155 78.3722L127.096 73.6425Z" stroke="white" stroke-linecap="round" stroke-linejoin="round"/>
<path d="M88.6357 74.0488C124.816 94.7643 172.791 106.105 222.099 112.563C271.807 119.074 322.923 120.632 364.758 121.814C372.108 122.016 379.192 122.218 385.864 122.448H385.865C437.341 124.093 488.12 121.381 531.025 114.28C570.351 107.799 604.388 96.757 625.046 82.918C624.857 83.5132 624.622 84.2726 624.363 85.1484C603.628 98.9394 570.731 109.189 531.274 115.688C488.27 122.776 437.411 125.515 385.809 123.843H385.81C382.443 123.727 378.995 123.619 375.478 123.515L364.727 123.208C323.004 122.025 272.32 120.592 222.94 114.258C173.623 107.932 125.661 96.723 89.249 76.0342C88.9847 75.3389 88.7925 74.8551 88.6895 74.4854C88.6659 74.3206 88.6499 74.1804 88.6357 74.0488Z" stroke="white"/>
<path d="M124.361 74.5655L127.096 73.6426V79.5259L129.83 80.3334L130.036 85.5534L131.506 86.159V95.7915L129.154 96.6279V102.05L124.391 100.435V74.5655H124.361Z" stroke="white" stroke-linecap="round" stroke-linejoin="round"/>
<path d="M341.609 2.66797C429.164 2.66797 511.868 16.6841 511.868 31.4212C511.868 46.1584 444.012 57.4636 354.516 56.5119C303.506 55.9639 259.023 51.0611 230.446 44.428C228.035 44.9759 223.948 46.0718 221.155 46.5044C221.302 44.2549 221.39 43.5628 221.508 42.0054C205.514 37.5064 196.664 32.6613 196.635 27.6432C196.576 13.9732 254.054 2.66797 341.609 2.66797Z" stroke="white" stroke-linecap="round" stroke-linejoin="round"/>
<path d="M232.149 10.7984C248.996 7.48178 269.576 5.31879 290.598 4.07868C334.552 1.54078 381.504 2.98276 407.759 5.28994C428.869 6.78961 457.005 10.2792 478.732 15.2974C504.281 21.2095 520.951 28.9674 506.604 38.3692C446.392 2.66553 225.622 12.1827 202.543 34.7065C185.638 24.6415 207.982 15.2397 232.149 10.7984Z" stroke="white" stroke-linecap="round" stroke-linejoin="round"/>
<path d="M221.506 42.0052C214.656 40.1018 208.07 37.8812 202.514 34.7088C215.362 22.423 282.954 15.5303 332.317 14.8382C352.192 14.2325 386.414 14.5209 419.902 17.6933C454.889 21.0099 488.993 27.6719 506.604 38.3714C500.371 42.1494 491.992 44.7162 482.819 46.7927C501.253 29.8925 427.34 17.4914 352.986 16.2802C284.13 15.1554 214.156 23.2305 221.506 42.0052Z" stroke="white" stroke-linecap="round" stroke-linejoin="round"/>
<path d="M230.439 44.4266C227.734 45.0611 223.324 46.0994 221.119 46.5031C221.237 45.3495 221.266 43.1 221.501 42.0041C214.21 20.2877 301.794 16.5963 335.752 16.1925C356.979 15.7022 395.876 17.2019 428.482 21.5855C465.203 26.546 495.074 35.1114 482.814 46.7915C471.759 49.1564 460.499 50.9733 449.033 52.2999C422.425 46.0994 390.29 43.2442 353.628 43.1289C319.582 42.1195 266.867 44.5132 260.487 49.9062C250.255 48.5219 240.2 46.7627 230.439 44.4266Z" stroke="white" stroke-linecap="round" stroke-linejoin="round"/>
<path d="M115.368 83.9082L124.424 87.1094V102.25L122.836 103.087L115.016 99.7701L115.368 83.9082Z" stroke="white" stroke-linecap="round" stroke-linejoin="round"/>
<path d="M69.7969 152.375L93.141 158.864L97.1688 251.44L72.6487 241.923L69.7969 152.375Z" stroke="white" stroke-linecap="round" stroke-linejoin="round"/>
<path d="M69.7969 152.375L93.141 158.864L93.3174 162.757L81.4101 158.806L83.2918 246.047L72.6487 241.923L69.7969 152.375Z" stroke="white" stroke-linecap="round" stroke-linejoin="round"/>
<path d="M0.5 173.832L71.2379 197.135L72.3257 231.425L2.29344 206.536L0.5 173.832Z" stroke="white" stroke-linecap="round" stroke-linejoin="round"/>
<path d="M0.5 173.832L48.9228 189.78L49.5108 209.795L43.1015 208.007L24.0793 214.294L2.29344 206.536L0.5 173.832Z" stroke="white" stroke-linecap="round" stroke-linejoin="round"/>
<path d="M48.864 161.459L70.2971 167.89L71.2379 197.134L0.5 173.831L48.864 161.459Z" stroke="white" stroke-linecap="round" stroke-linejoin="round"/>
<path d="M48.7443 162.959L70.3832 170.255L70.295 167.891L71.2358 197.134L71.1476 194.74L7.17188 173.63L48.7443 162.959Z" stroke="white" stroke-linecap="round" stroke-linejoin="round"/>
<path d="M16.1992 178.994L19.8155 180.205L21.3737 213.313L17.581 211.987L16.1992 178.994Z" stroke="white" stroke-linecap="round" stroke-linejoin="round"/>
<path d="M23.9297 181.531L26.6051 182.425L27.6636 213.082L25.2821 213.861L23.9297 181.531Z" stroke="white" stroke-linecap="round" stroke-linejoin="round"/>
<path d="M28.3398 183L30.4273 183.692L31.5739 211.811L29.6041 212.445L28.3398 183Z" stroke="white" stroke-linecap="round" stroke-linejoin="round"/>
<path d="M32.7812 184.473L34.8393 185.165L35.8683 210.4L33.8985 211.034L32.7812 184.473Z" stroke="white" stroke-linecap="round" stroke-linejoin="round"/>
<path d="M37.5469 186.031L39.6049 186.723L40.5163 208.844L38.5465 209.507L37.5469 186.031Z" stroke="white" stroke-linecap="round" stroke-linejoin="round"/>
<path d="M41.4551 187.33L43.5131 187.993L44.3363 208.354L43.1015 208.008L42.3371 208.268L41.4551 187.33Z" stroke="white" stroke-linecap="round" stroke-linejoin="round"/>
<path d="M58.2461 226.436L59.6279 226.926V236.068L58.2461 235.578V226.436Z" stroke="white" stroke-linecap="round" stroke-linejoin="round"/>
<path d="M59.1279 227.279V235.359L58.7461 235.224V227.144L59.1279 227.279Z" stroke="white"/>
<path fill-rule="evenodd" clip-rule="evenodd" d="M59.623 236.068L61.9457 235.318V227.791L59.623 226.926V236.068Z" stroke="white" stroke-linecap="round" stroke-linejoin="round"/>
<path d="M43.0723 221.131L44.4541 221.621V230.792L43.0723 230.273V221.131Z" stroke="white" stroke-linecap="round" stroke-linejoin="round"/>
<path d="M43.9541 221.975V230.069L43.5723 229.926V221.839L43.9541 221.975Z" stroke="white"/>
<path fill-rule="evenodd" clip-rule="evenodd" d="M44.4512 230.79L46.7738 230.012V222.513L44.4512 221.619V230.79Z" stroke="white" stroke-linecap="round" stroke-linejoin="round"/>
<path d="M28.373 216.082L29.7549 216.572V225.743L28.373 225.224V216.082Z" stroke="white" stroke-linecap="round" stroke-linejoin="round"/>
<path d="M29.2549 216.926V225.021L28.873 224.877V216.79L29.2549 216.926Z" stroke="white"/>
<path fill-rule="evenodd" clip-rule="evenodd" d="M29.752 225.743L32.0746 224.965V217.466L29.752 216.572V225.743Z" stroke="white" stroke-linecap="round" stroke-linejoin="round"/>
<path d="M16.6133 211.898L17.9951 212.389V221.56L16.6133 221.041V211.898Z" stroke="white" stroke-linecap="round" stroke-linejoin="round"/>
<path d="M17.4951 212.742V220.837L17.1133 220.693V212.606L17.4951 212.742Z" stroke="white"/>
<path fill-rule="evenodd" clip-rule="evenodd" d="M17.9902 221.562L20.3129 220.783V213.285L17.9902 212.391V221.562Z" stroke="white" stroke-linecap="round" stroke-linejoin="round"/>
<path d="M4.85156 207.861L6.23339 208.352V217.494L4.85156 217.004V207.861Z" stroke="white" stroke-linecap="round" stroke-linejoin="round"/>
<path d="M5.7334 208.705V216.785L5.35156 216.649V208.569L5.7334 208.705Z" stroke="white"/>
<path fill-rule="evenodd" clip-rule="evenodd" d="M6.23047 217.494L8.55312 216.744V209.246L6.23047 208.352V217.494Z" stroke="white" stroke-linecap="round" stroke-linejoin="round"/>
<path d="M93.168 158.862L119.511 152.402L122.128 243.507L97.1665 251.438L93.168 158.862Z" stroke="white" stroke-linecap="round" stroke-linejoin="round"/>
<path d="M119.516 152.404L202.543 151.885L203.072 242.73L122.132 243.509L119.516 152.404Z" stroke="white" stroke-linecap="round" stroke-linejoin="round"/>
<path d="M119.516 152.404L202.543 151.885L203.013 232.636L201.161 232.521L200.338 155.346L121.868 155.836L124.308 243.509H122.132L119.516 152.404Z" stroke="white" stroke-linecap="round" stroke-linejoin="round"/>
<path d="M202.537 151.885L266.16 169.477L265.484 263.87L203.066 242.73L202.537 151.885Z" stroke="white" stroke-linecap="round" stroke-linejoin="round"/>
<path d="M69.7969 152.374L77.3234 135.82L165.143 134.983L188.252 129.244L203.864 133.339L201.041 135.416L228.913 135.099L312.029 156.094L266.164 169.476L202.541 151.883L119.484 152.402L93.141 158.863L69.7969 152.374Z" stroke="white" stroke-linecap="round" stroke-linejoin="round"/>
<path d="M202.723 133.557L200.745 135.013L199.494 135.934L201.047 135.916L228.855 135.599L310.124 156.129L266.159 168.956L202.674 151.401L202.607 151.383L202.537 151.384L119.48 151.902L119.422 151.903L119.365 151.917L93.1475 158.346L70.4941 152.048L77.6465 136.315L165.147 135.483L165.207 135.482L165.264 135.469L188.248 129.76L202.723 133.557Z" stroke="white"/>
<path d="M72.6816 151.277L79.091 137.146L165.147 137.059L188.05 130.945L199.104 133.483L189.49 136.627H228.446L305.711 156.209L262.815 168.552L202.544 151.883L119.517 152.402L96.5255 158.055L72.6816 151.277Z" stroke="white" stroke-linecap="round" stroke-linejoin="round"/>
<path d="M197.236 133.567L189.335 136.151L189.49 137.127H228.385L303.796 156.239L262.812 168.032L202.678 151.401L202.61 151.383H202.541L119.514 151.902H119.455L119.397 151.917L96.5342 157.537L73.376 150.955L79.4131 137.645L165.147 137.56H165.213L165.275 137.542L188.059 131.46L197.236 133.567Z" stroke="white"/>
<path d="M266.159 169.477L309.995 156.672L308.672 247.056L265.482 263.869L266.159 169.477Z" stroke="white" stroke-linecap="round" stroke-linejoin="round"/>
<path d="M270.364 168.265L292.002 161.92L291.297 221.272L278.625 225.339L278.419 248.468L269.746 251.583L270.364 168.265Z" stroke="white" stroke-linecap="round" stroke-linejoin="round"/>
<path d="M266.28 165.696L270.367 164.168L269.749 251.581L265.574 253.225L266.28 165.696Z" stroke="white" stroke-linecap="round" stroke-linejoin="round"/>
<path d="M249.231 160.623L266.195 165.814L265.578 253.228L251.524 248.411L251.701 226.637L253.671 227.099V188.482L249.025 187.011L249.231 160.623Z" stroke="white" stroke-linecap="round" stroke-linejoin="round"/>
<path d="M73.8867 200.393L82.3541 202.411L83.2949 246.046L74.7687 242.729L73.8867 200.393Z" stroke="white" stroke-linecap="round" stroke-linejoin="round"/>
<path d="M119.865 164.891L93.7283 172.187L81.6152 168.351" stroke="white" stroke-linecap="round" stroke-linejoin="round"/>
<path d="M119.865 173.197L94.0811 180.378L81.6152 176.658" stroke="white" stroke-linecap="round" stroke-linejoin="round"/>
<path d="M120.541 188.627L94.7571 195.779L81.6738 192.232" stroke="white" stroke-linecap="round" stroke-linejoin="round"/>
<path d="M121.218 211.381L95.7273 218.389L81.6738 215.13" stroke="white" stroke-linecap="round" stroke-linejoin="round"/>
<path d="M120.306 180.494L94.4339 187.992L81.6152 183.926" stroke="white" stroke-linecap="round" stroke-linejoin="round"/>
<path d="M120.983 203.16L95.4041 210.601L81.6152 206.823" stroke="white" stroke-linecap="round" stroke-linejoin="round"/>
<path d="M120.747 195.836L95.0805 203.363L81.6738 199.499" stroke="white" stroke-linecap="round" stroke-linejoin="round"/>
<path d="M121.423 218.793L96.0507 225.974L81.6738 222.398" stroke="white" stroke-linecap="round" stroke-linejoin="round"/>
<path d="M121.423 226.002L96.0507 233.183L81.6738 229.578" stroke="white" stroke-linecap="round" stroke-linejoin="round"/>
<path d="M122.134 235.547L96.7911 242.757L82.3848 239.152" stroke="white" stroke-linecap="round" stroke-linejoin="round"/>
<path d="M83.9707 156.297L86.4992 157.018L89.4098 248.411L86.9402 247.459L83.9707 156.297Z" stroke="white" stroke-linecap="round" stroke-linejoin="round"/>
<path d="M78.9961 154.941L81.1717 155.547L84.4646 246.508L81.9656 245.527L78.9961 154.941Z" stroke="white" stroke-linecap="round" stroke-linejoin="round"/>
<path d="M93.168 158.862L119.511 152.402L119.599 155.978L93.315 162.756L93.168 158.862Z" stroke="white" stroke-linecap="round" stroke-linejoin="round"/>
<path d="M122.363 216.196L200.51 215.359" stroke="white" stroke-linecap="round" stroke-linejoin="round"/>
<path d="M122.363 202.643L200.51 201.836" stroke="white" stroke-linecap="round" stroke-linejoin="round"/>
<path d="M122.363 187.934L200.51 187.127" stroke="white" stroke-linecap="round" stroke-linejoin="round"/>
<path d="M122.363 174.034L200.51 173.227" stroke="white" stroke-linecap="round" stroke-linejoin="round"/>
<path d="M127.094 148.105H132.974L134.621 243.392L127.212 243.479L125.889 168.784L127.623 168.639L127.094 148.105Z" stroke="white" stroke-linecap="round" stroke-linejoin="round"/>
<path d="M138.296 148.164H144.147L145.705 243.307L139.031 243.364L137.385 185.194L139.149 185.05L138.296 148.164Z" stroke="white" stroke-linecap="round" stroke-linejoin="round"/>
<path d="M165.787 243.105L160.495 243.163L159.172 148.193H166.463L167.375 190.242L165.611 190.386L165.787 243.105Z" stroke="white" stroke-linecap="round" stroke-linejoin="round"/>
<path d="M176.845 242.989L171.759 243.047L170.436 148.51H177.727L178.168 174.148L176.404 174.264L176.845 242.989Z" stroke="white" stroke-linecap="round" stroke-linejoin="round"/>
<path d="M181.809 148.279H185.425L186.248 232.607H182.455L181.809 148.279Z" stroke="white" stroke-linecap="round" stroke-linejoin="round"/>
<path d="M190.813 148.163L196.576 148.076L197.428 232.404L190.137 232.49L190.078 211.322L191.284 211.235L190.813 148.163Z" stroke="white" stroke-linecap="round" stroke-linejoin="round"/>
<path d="M200.572 148.25H202.601L203.012 232.635L201.16 232.52L200.572 148.25Z" stroke="white" stroke-linecap="round" stroke-linejoin="round"/>
<path d="M242.904 158.979L249.225 160.622L248.608 246.853L243.492 245.325L242.904 158.979Z" stroke="white" stroke-linecap="round" stroke-linejoin="round"/>
<path d="M234.879 156.672L241.171 158.316L240.553 244.547L235.467 243.047L234.879 156.672Z" stroke="white" stroke-linecap="round" stroke-linejoin="round"/>
<path d="M214.121 151.681L207.829 150.066L207.946 149.576L214.238 151.22L214.444 151.451L214.121 151.681ZM214.238 151.22C214.385 151.249 214.473 151.364 214.415 151.508C214.385 151.624 214.268 151.71 214.121 151.681L214.238 151.22ZM213.327 236.009L213.944 151.451H214.444L213.827 236.009L213.503 236.24L213.327 236.009ZM213.827 236.009C213.827 236.009 213.709 236.24 213.591 236.24C213.444 236.24 213.327 236.124 213.327 236.009H213.827ZM208.534 234.279L213.65 235.778L213.503 236.24L208.417 234.74L208.24 234.509L208.534 234.279ZM208.417 234.74C208.27 234.711 208.211 234.567 208.24 234.452C208.24 234.307 208.417 234.25 208.534 234.279L208.417 234.74ZM208.123 149.807L208.711 234.509H208.24L207.623 149.836L207.946 149.576L208.123 149.807ZM207.623 149.836C207.623 149.692 207.741 149.576 207.888 149.576C208.005 149.576 208.123 149.692 208.123 149.807H207.623V149.836Z" fill="white"/>
<path d="M226.619 154.682L232.94 156.325L232.617 198.778H231.059L231.323 242.268L227.207 241.057L226.619 154.682Z" stroke="white" stroke-linecap="round" stroke-linejoin="round"/>
<path d="M217.946 152.316L224.268 153.96L224.209 212.476L222.65 212.159V239.268L216.859 237.423L216.535 188.77L217.946 189.145V152.316Z" stroke="white" stroke-linecap="round" stroke-linejoin="round"/>
<path d="M271.688 232.088L306.88 243.047V265.282L311.143 266.782V275.521L306.88 274.223L271.688 262.312V232.088Z" stroke="white" stroke-linecap="round" stroke-linejoin="round"/>
<path d="M271.688 232.088L306.88 243.047V246.479L271.688 235.289V232.088Z" stroke="white" stroke-linecap="round" stroke-linejoin="round"/>
<path d="M278.51 237.451V264.647" stroke="white" stroke-linecap="round" stroke-linejoin="round"/>
<path d="M286.982 240.162V267.329" stroke="white" stroke-linecap="round" stroke-linejoin="round"/>
<path d="M296.123 243.074V270.241" stroke="white" stroke-linecap="round" stroke-linejoin="round"/>
<path d="M271.688 248.238L306.88 259.197V262.658L271.688 251.468V248.238Z" stroke="white" stroke-linecap="round" stroke-linejoin="round"/>
<path d="M271.688 232.086L306.88 243.045L308.762 242.353L273.54 231.596L271.688 232.086Z" stroke="white" stroke-linecap="round" stroke-linejoin="round"/>
<path d="M281.977 228.742L314.17 238.375L316.552 237.827L283.829 228.252L281.977 228.742Z" stroke="white" stroke-linecap="round" stroke-linejoin="round"/>
<path d="M277.131 232.692L308.472 242.469L314.176 240.566L281.982 231.02L277.131 232.692Z" stroke="white" stroke-linecap="round" stroke-linejoin="round"/>
<path d="M312.511 240.593L308.468 241.943L278.733 232.668L281.992 231.544L312.511 240.593Z" stroke="white"/>
<path d="M281.977 230.992L314.17 240.567V238.404L281.977 228.742V230.992Z" stroke="white" stroke-linecap="round" stroke-linejoin="round"/>
<path d="M302.236 242.93L445.594 287.43L444.182 326.334L377.002 303.637L377.472 288.064L302.236 263.925V258.792L399.111 290.544L399.405 285.18L302.236 254.639V242.93Z" stroke="white" stroke-linecap="round" stroke-linejoin="round"/>
<path d="M377.47 288.035L444.739 310.444L444.18 326.334L377 303.637L377.47 288.035Z" stroke="white" stroke-linecap="round" stroke-linejoin="round"/>
<path d="M311.145 266.781L377.178 287.95V297.467L311.145 276.673V266.781Z" stroke="white" stroke-linecap="round" stroke-linejoin="round"/>
<path d="M302.236 242.93L445.594 287.43L508.864 259.427L367.653 219.916L302.236 242.93Z" stroke="white" stroke-linecap="round" stroke-linejoin="round"/>
<path d="M308.092 278.779C307.357 279.067 306.152 278.952 305.74 278.375V265.051L308.092 265.801V278.779Z" stroke="white" stroke-linecap="round" stroke-linejoin="round"/>
<path d="M326.2 284.577C325.465 284.866 324.259 284.75 323.848 284.174V270.85L326.2 271.599V284.577Z" stroke="white" stroke-linecap="round" stroke-linejoin="round"/>
<path d="M344.692 290.517C343.957 290.805 342.751 290.69 342.34 290.113V276.789L344.692 277.539V290.517Z" stroke="white" stroke-linecap="round" stroke-linejoin="round"/>
<path d="M363.836 296.659C363.131 296.948 361.896 296.832 361.484 296.256V282.932L363.836 283.682V296.659Z" stroke="white" stroke-linecap="round" stroke-linejoin="round"/>
<path d="M402.346 301.562L407.461 303.178V306.581L402.346 305.023V301.562Z" stroke="white" stroke-linecap="round" stroke-linejoin="round"/>
<path d="M412.545 304.764L417.69 306.408V309.839L412.545 308.224V304.764Z" stroke="white" stroke-linecap="round" stroke-linejoin="round"/>
<path d="M423.189 308.139L428.335 309.754V313.157L423.189 311.599V308.139Z" stroke="white" stroke-linecap="round" stroke-linejoin="round"/>
<path d="M445.595 287.431L508.865 259.398L506.572 297.582L444.184 326.336L445.595 287.431Z" stroke="white" stroke-linecap="round" stroke-linejoin="round"/>
<path d="M444.772 310.446L507.542 281.635L506.572 297.583L444.184 326.336L444.772 310.446Z" stroke="white" stroke-linecap="round" stroke-linejoin="round"/>
<path d="M294.562 231.397L468.82 170.257L429.482 110.789L439.449 110.039L482.403 171.929L307.175 235.088L294.562 231.397Z" stroke="white" stroke-linecap="round" stroke-linejoin="round"/>
<path d="M307.586 234.943L482.402 171.928L482.02 184.242L377.295 222.599L367.651 219.917L316.553 237.827L307.586 234.943Z" stroke="white" stroke-linecap="round" stroke-linejoin="round"/>
<path d="M429.014 121.514L429.484 110.785L468.822 170.253L462.325 172.531L429.014 121.514Z" stroke="white" stroke-linecap="round" stroke-linejoin="round"/>
<path d="M418.689 207.457L420.306 206.852V218.243L418.689 218.849V207.457Z" stroke="white" stroke-linecap="round" stroke-linejoin="round"/>
<path fill-rule="evenodd" clip-rule="evenodd" d="M418.689 207.457L420.306 206.852V218.243L418.689 218.849V207.457Z" fill="white"/>
<path d="M456.299 193.672L457.916 193.066V203.737L456.299 204.314V193.672Z" stroke="white" stroke-linecap="round" stroke-linejoin="round"/>
<path fill-rule="evenodd" clip-rule="evenodd" d="M456.299 193.672L457.916 193.066V203.737L456.299 204.314V193.672Z" fill="white"/>
<path d="M482.078 184.474L480.902 184.906L480.726 184.474L481.902 184.041L482.225 184.272L482.078 184.474ZM481.902 184.041C481.902 184.041 482.166 184.041 482.196 184.185C482.254 184.301 482.196 184.445 482.078 184.474L481.902 184.041ZM481.49 195.404L481.725 184.243H482.225L481.96 195.404L481.813 195.635L481.49 195.404ZM481.96 195.404C481.96 195.548 481.843 195.663 481.725 195.663C481.578 195.663 481.461 195.548 481.49 195.404H481.96ZM480.579 195.692L481.608 195.202L481.813 195.635L480.784 196.125L480.432 195.894L480.579 195.692ZM480.784 196.125C480.784 196.125 480.52 196.125 480.461 196.01C480.402 195.865 480.432 195.721 480.579 195.692L480.784 196.125ZM481.078 184.704L480.931 195.894H480.432L480.579 184.675L480.726 184.474L481.078 184.704ZM480.579 184.675C480.579 184.675 480.696 184.445 480.814 184.445C480.961 184.445 481.078 184.56 481.078 184.704H480.579V184.675Z" fill="white"/>
<path fill-rule="evenodd" clip-rule="evenodd" d="M480.817 184.675L481.993 184.242L481.728 195.403L480.67 195.893L480.817 184.675Z" fill="white"/>
<path d="M470.732 188.771L469.615 189.059L469.497 188.597L470.585 188.309L470.908 188.54L470.732 188.771ZM470.585 188.309C470.732 188.251 470.849 188.338 470.908 188.482C470.938 188.597 470.849 188.742 470.732 188.771L470.585 188.309ZM470.291 194.106L470.408 188.54H470.908L470.791 194.106L470.644 194.337L470.291 194.106ZM470.791 194.106C470.791 194.25 470.673 194.337 470.526 194.337C470.379 194.337 470.291 194.221 470.291 194.106H470.791ZM469.379 194.365L470.438 193.875L470.644 194.337L469.585 194.798L469.232 194.596L469.379 194.365ZM469.585 194.798C469.585 194.798 469.321 194.827 469.262 194.683C469.203 194.567 469.262 194.423 469.379 194.365L469.585 194.798ZM469.82 188.828L469.732 194.596H469.232L469.321 188.828L469.497 188.597L469.82 188.828ZM469.321 188.828C469.321 188.684 469.438 188.569 469.556 188.597C469.703 188.597 469.82 188.684 469.82 188.828H469.321Z" fill="white"/>
<path fill-rule="evenodd" clip-rule="evenodd" d="M469.557 188.827L470.674 188.539L470.527 194.105L469.498 194.595L469.557 188.827Z" fill="white"/>
<path d="M447.768 196.788L449.385 196.211V202.037L447.768 202.613V196.788Z" stroke="white" stroke-linecap="round" stroke-linejoin="round"/>
<path fill-rule="evenodd" clip-rule="evenodd" d="M447.768 196.788L449.385 196.211V202.037L447.768 202.613V196.788Z" fill="white"/>
<path d="M410.051 210.602L411.668 210.025V216.341L410.051 216.947V210.602Z" stroke="white" stroke-linecap="round" stroke-linejoin="round"/>
<path fill-rule="evenodd" clip-rule="evenodd" d="M410.051 210.602L411.668 210.025V216.341L410.051 216.947V210.602Z" fill="white"/>
<path d="M418.694 218.821L416.842 218.216V208.122L418.694 207.43V218.821Z" stroke="white" stroke-linecap="round" stroke-linejoin="round"/>
<path fill-rule="evenodd" clip-rule="evenodd" d="M418.694 218.821L416.842 218.216V208.122L418.694 207.43V218.821Z" fill="white"/>
<path d="M456.325 204.316L454.473 203.71V194.366L456.325 193.674V204.316Z" stroke="white" stroke-linecap="round" stroke-linejoin="round"/>
<path fill-rule="evenodd" clip-rule="evenodd" d="M456.325 204.316L454.473 203.71V194.366L456.325 193.674V204.316Z" fill="white"/>
<path d="M479.314 195.057L480.754 195.663L480.578 196.124L479.108 195.518L478.961 195.288L479.314 195.057ZM479.108 195.518C479.108 195.518 478.932 195.316 478.99 195.201C479.02 195.057 479.167 194.999 479.314 195.057L479.108 195.518ZM479.696 185.194L479.461 195.288H478.961L479.196 185.194L479.373 184.963L479.696 185.194ZM479.196 185.194C479.196 185.049 479.314 184.934 479.461 184.934C479.608 184.963 479.696 185.049 479.696 185.194H479.196ZM480.901 184.905L479.549 185.424L479.373 184.963L480.725 184.473L481.048 184.703L480.901 184.905ZM480.725 184.473C480.725 184.473 480.99 184.473 481.048 184.617C481.107 184.732 481.019 184.876 480.901 184.905L480.725 184.473ZM480.431 195.893L480.578 184.675H481.048L480.901 195.893L480.578 196.124L480.431 195.893ZM480.901 195.893C480.901 196.037 480.813 196.153 480.666 196.124C480.519 196.124 480.431 196.037 480.431 195.893H480.901Z" fill="white"/>
<path fill-rule="evenodd" clip-rule="evenodd" d="M480.671 195.894L479.201 195.289L479.466 185.195L480.818 184.676L480.671 195.894Z" fill="white"/>
<path d="M468.119 193.73L469.589 194.364L469.384 194.797L467.943 194.191L467.796 193.961L468.119 193.73ZM467.943 194.191C467.796 194.134 467.737 193.989 467.796 193.874C467.855 193.759 468.002 193.701 468.119 193.73L467.943 194.191ZM468.384 189.346L468.266 193.961H467.796L467.884 189.317L468.061 189.115L468.384 189.346ZM467.884 189.317C467.884 189.317 468.002 189.087 468.149 189.087C468.296 189.087 468.384 189.202 468.384 189.346H467.884V189.317ZM469.648 189.029L468.237 189.548L468.061 189.115L469.472 188.596L469.825 188.827L469.648 189.029ZM469.472 188.596C469.619 188.539 469.736 188.596 469.795 188.741C469.854 188.856 469.766 189 469.648 189.029L469.472 188.596ZM469.237 194.566L469.325 188.798H469.825L469.736 194.566L469.384 194.797L469.237 194.566ZM469.736 194.566C469.736 194.566 469.619 194.826 469.472 194.826C469.354 194.826 469.237 194.71 469.237 194.566H469.736Z" fill="white"/>
<path fill-rule="evenodd" clip-rule="evenodd" d="M469.497 194.569L468.027 193.963L468.145 189.32L469.556 188.801L469.497 194.569Z" fill="white"/>
<path d="M447.772 202.611L445.92 202.005V197.478L447.772 196.93V202.611Z" stroke="white" stroke-linecap="round" stroke-linejoin="round"/>
<path fill-rule="evenodd" clip-rule="evenodd" d="M447.772 202.611L445.92 202.005V197.478L447.772 196.93V202.611Z" fill="white"/>
<path d="M410.046 216.917L408.193 216.312V211.294L410.046 210.602V216.917Z" stroke="white" stroke-linecap="round" stroke-linejoin="round"/>
<path fill-rule="evenodd" clip-rule="evenodd" d="M410.046 216.917L408.193 216.312V211.294L410.046 210.602V216.917Z" fill="white"/>
<path d="M450.949 167.112H453.242L453.536 159.095L451.478 155.951L450.949 167.112Z" stroke="white" stroke-linecap="round" stroke-linejoin="round"/>
<path fill-rule="evenodd" clip-rule="evenodd" d="M450.949 167.112H453.242L453.536 159.095L451.478 155.951L450.949 167.112Z" fill="white"/>
<path d="M444.241 152.548H441.948V152.057H444.241L444.477 152.288L444.241 152.548ZM444.241 152.057C444.241 152.057 444.477 152.173 444.477 152.288C444.477 152.432 444.359 152.548 444.241 152.548V152.057ZM444.594 145.02L444.477 152.288H443.977L444.094 144.992L444.565 144.876V145.02H444.594ZM444.094 144.992C444.094 144.992 444.212 144.761 444.359 144.761C444.477 144.761 444.594 144.876 444.594 145.02H444.094V144.992ZM442.419 141.617L444.565 144.876L444.124 145.136L442.007 141.877V141.733L442.419 141.617ZM442.007 141.877C442.007 141.877 441.978 141.588 442.095 141.531C442.183 141.473 442.36 141.502 442.419 141.617L442.007 141.877ZM441.684 152.288L441.978 141.733H442.448L442.183 152.317L441.948 152.548L441.684 152.288ZM442.183 152.317C442.183 152.317 442.066 152.548 441.948 152.548C441.801 152.548 441.684 152.432 441.684 152.288H442.183V152.317Z" fill="white"/>
<path fill-rule="evenodd" clip-rule="evenodd" d="M441.947 152.288H444.241L444.358 144.991L442.212 141.732L441.947 152.288Z" fill="white"/>
<path d="M432.798 134.234H430.505V133.744H432.798L433.033 134.003L432.798 134.234ZM432.798 133.744C432.798 133.744 433.033 133.859 433.033 134.003C433.033 134.119 432.916 134.234 432.798 134.234V133.744ZM433.121 127.486L433.033 134.003H432.533L432.651 127.486L433.092 127.341V127.486H433.121ZM432.651 127.486C432.651 127.341 432.739 127.226 432.886 127.226C433.033 127.226 433.121 127.341 433.121 127.486H432.651ZM430.946 124.082L433.092 127.341L432.68 127.601L430.534 124.342V124.198L430.946 124.082ZM430.534 124.342C430.534 124.342 430.505 124.082 430.622 123.996C430.74 123.938 430.887 123.996 430.946 124.082L430.534 124.342ZM430.24 134.003L430.505 124.198H431.005L430.74 134.003L430.505 134.234L430.24 134.003ZM430.74 134.003C430.74 134.003 430.622 134.234 430.475 134.234C430.358 134.234 430.24 134.119 430.24 134.003H430.74Z" fill="white"/>
<path fill-rule="evenodd" clip-rule="evenodd" d="M430.504 134.003H432.797L432.885 127.485L430.739 124.197L430.504 134.003Z" fill="white"/>
<path d="M260.49 49.9057C271.986 43.6475 317.322 43.1283 344.576 42.9265C380.18 42.6669 419.165 45.4932 449.036 52.2994C417.548 55.7025 386.031 56.9426 354.513 56.51C321.026 55.9332 289.42 53.9433 260.49 49.9057Z" stroke="white" stroke-linecap="round" stroke-linejoin="round"/>
<path d="M344.58 43.4268C378.985 43.176 416.531 45.8087 445.934 52.125C415.483 55.2812 385.003 56.4281 354.521 56.0098H354.522C321.695 55.4443 290.685 53.5185 262.237 49.6396C265.134 48.4513 269.439 47.4802 274.719 46.6982C280.99 45.7695 288.57 45.1128 296.652 44.6445C312.816 43.7081 330.952 43.5277 344.58 43.4268Z" stroke="white"/>
<path d="M67.5352 195.922L68.5936 230.126" stroke="white" stroke-linecap="round" stroke-linejoin="round"/>
<path d="M62.2441 194.191L63.3026 228.367" stroke="white" stroke-linecap="round" stroke-linejoin="round"/>
<path d="M57.3574 192.576L58.4452 226.751" stroke="white" stroke-linecap="round" stroke-linejoin="round"/>
<path d="M53.041 191.164L54.0994 224.964" stroke="white" stroke-linecap="round" stroke-linejoin="round"/>
<path d="M47.3906 209.275C47.3906 209.275 47.4788 209.044 47.6258 209.016C47.7434 209.016 47.861 209.131 47.861 209.275H47.3906ZM47.9198 222.859L47.3906 209.275H47.861L48.4196 222.859H47.9198ZM48.4196 222.859C48.4196 222.859 48.302 223.089 48.1844 223.089C48.0374 223.089 47.9198 223.003 47.9198 222.859H48.4196Z" fill="white"/>
<path d="M42.8652 208.006C42.8652 208.006 42.9828 207.746 43.1004 207.746C43.2474 207.746 43.365 207.861 43.365 207.977H42.8652V208.006ZM43.3944 221.243L42.8652 208.006H43.365L43.8649 221.214H43.3944V221.243ZM43.8649 221.214C43.8649 221.214 43.7767 221.474 43.6297 221.474C43.512 221.474 43.3944 221.387 43.3944 221.243H43.8649V221.214Z" fill="white"/>
<path d="M38.2852 209.504C38.2852 209.504 38.4028 209.273 38.5204 209.273C38.6674 209.273 38.785 209.36 38.785 209.504H38.2852ZM38.6968 219.569L38.2852 209.504H38.785L39.1672 219.54H38.6968V219.569ZM39.1672 219.54C39.1672 219.685 39.079 219.8 38.932 219.8C38.8144 219.8 38.6968 219.713 38.6968 219.569H39.1672V219.54Z" fill="white"/>
<path d="M33.334 211.15C33.334 211.006 33.4516 210.891 33.5692 210.891C33.7162 210.891 33.8338 211.006 33.8338 211.121H33.334V211.15ZM33.5986 217.783L33.334 211.15H33.8338L34.0984 217.755H33.5986V217.783ZM34.0984 217.755C34.0984 217.899 33.9808 217.985 33.8632 218.014C33.7162 218.014 33.5986 217.899 33.5986 217.783H34.0984V217.755Z" fill="white"/>
<path d="M71.5632 207.43L49.2188 199.787" stroke="white" stroke-linecap="round" stroke-linejoin="round"/>
<path d="M71.8866 217.553L49.2188 209.795" stroke="white" stroke-linecap="round" stroke-linejoin="round"/>
<path d="M72.1188 225.34L32.3691 211.555" stroke="white" stroke-linecap="round" stroke-linejoin="round"/>
<path d="M96.3711 233.242L137.855 248.729L184.367 232.607L162.64 225.368L121.597 225.195L96.3711 233.242Z" stroke="white" stroke-linecap="round" stroke-linejoin="round"/>
<path d="M96.3711 233.242L121.597 225.195L162.64 225.368L184.367 232.607L137.855 248.729L96.3711 233.242Z" stroke="white" stroke-linecap="round" stroke-linejoin="round"/>
<path d="M103.816 236.009L136.627 225.252" stroke="white" stroke-linecap="round" stroke-linejoin="round"/>
<path d="M112.543 239.269L155.879 225.34" stroke="white" stroke-linecap="round" stroke-linejoin="round"/>
<path d="M125.074 243.968L172.262 228.539" stroke="white" stroke-linecap="round" stroke-linejoin="round"/>
<path d="M104.93 230.502L146.767 245.643" stroke="white" stroke-linecap="round" stroke-linejoin="round"/>
<path d="M116.252 226.896L157.266 241.98" stroke="white" stroke-linecap="round" stroke-linejoin="round"/>
<path d="M165.786 239.037L126.889 225.223" stroke="white" stroke-linecap="round" stroke-linejoin="round"/>
<path d="M176.345 235.378L148.443 225.312" stroke="white" stroke-linecap="round" stroke-linejoin="round"/>
<path d="M100.613 234.828L101.201 251.296" stroke="white" stroke-linecap="round" stroke-linejoin="round"/>
<path d="M115.311 240.307L115.751 256.659" stroke="white" stroke-linecap="round" stroke-linejoin="round"/>
<path d="M122.949 243.164L123.419 259.343" stroke="white" stroke-linecap="round" stroke-linejoin="round"/>
<path d="M137.855 248.729L138.208 265.167" stroke="white" stroke-linecap="round" stroke-linejoin="round"/>
<path d="M154.967 242.787L155.319 259.428" stroke="white" stroke-linecap="round" stroke-linejoin="round"/>
<path d="M163.523 239.816L163.964 256.572" stroke="white" stroke-linecap="round" stroke-linejoin="round"/>
<path d="M180.316 233.992L180.404 250.921" stroke="white" stroke-linecap="round" stroke-linejoin="round"/>
<path d="M105.045 159.729L107.632 229.665" stroke="white" stroke-linecap="round" stroke-linejoin="round"/>
<path d="M265.482 263.87L271.686 261.447V250.863L265.482 253.488V263.87Z" stroke="white" stroke-linecap="round" stroke-linejoin="round"/>
<path d="M406.756 282.932L437.332 292.045L436.862 301.937L406.227 292.276L406.756 282.932Z" stroke="white" stroke-linecap="round" stroke-linejoin="round"/>
<path d="M306.887 256.082L399.146 285.095V290.546L306.887 260.293V256.082Z" stroke="white" stroke-linecap="round" stroke-linejoin="round"/>
<path d="M311.145 270.271L377.178 291.555" stroke="white" stroke-linecap="round" stroke-linejoin="round"/>
<path d="M316.879 268.627V278.461" stroke="white" stroke-linecap="round" stroke-linejoin="round"/>
<path d="M313.235 267.445L313.146 277.309" stroke="white" stroke-linecap="round" stroke-linejoin="round"/>
<path d="M320.85 269.896V279.731" stroke="white" stroke-linecap="round" stroke-linejoin="round"/>
<path d="M330.606 273.041L330.547 282.789" stroke="white" stroke-linecap="round" stroke-linejoin="round"/>
<path d="M335.899 274.713L335.781 284.432" stroke="white" stroke-linecap="round" stroke-linejoin="round"/>
<path d="M349.275 279.008L349.422 288.727" stroke="white" stroke-linecap="round" stroke-linejoin="round"/>
<path d="M355.537 281.027V290.66" stroke="white" stroke-linecap="round" stroke-linejoin="round"/>
<path d="M368.59 285.182L368.502 294.728" stroke="white" stroke-linecap="round" stroke-linejoin="round"/>
<path d="M373.039 286.623V296.14" stroke="white" stroke-linecap="round" stroke-linejoin="round"/>
<path d="M306.887 258.188L399.146 287.835" stroke="white" stroke-linecap="round" stroke-linejoin="round"/>
<path d="M315.385 258.764V263.147" stroke="white" stroke-linecap="round" stroke-linejoin="round"/>
<path d="M328.465 262.861V267.418" stroke="white" stroke-linecap="round" stroke-linejoin="round"/>
<path d="M340.961 266.811V271.367" stroke="white" stroke-linecap="round" stroke-linejoin="round"/>
<path d="M353.008 270.59V275.435" stroke="white" stroke-linecap="round" stroke-linejoin="round"/>
<path d="M366.008 274.684V279.615" stroke="white" stroke-linecap="round" stroke-linejoin="round"/>
<path d="M380.973 279.385V284.518" stroke="white" stroke-linecap="round" stroke-linejoin="round"/>
<path d="M412.69 284.719L412.279 294.178" stroke="white" stroke-linecap="round" stroke-linejoin="round"/>
<path d="M424.11 288.094L423.699 297.322" stroke="white" stroke-linecap="round" stroke-linejoin="round"/>
<path d="M406.494 287.604L437.13 296.544" stroke="white" stroke-linecap="round" stroke-linejoin="round"/>
<path d="M291.385 173.341L270.775 179.868V178.437L291.385 171.918V173.341Z" stroke="white"/>
<path d="M291.211 188.251L270.66 194.806V193.345L291.211 186.717V188.251Z" stroke="white"/>
<path d="M291.008 204.154L270.545 210.753V209.209L291.008 202.665V204.154Z" stroke="white"/>
<path d="M290.89 218.245L270.545 224.797V223.253L290.89 216.766V218.245Z" stroke="white"/>
<path d="M239.814 46.4755C246.283 17.8376 462.377 27.9315 465.993 49.9651" stroke="white" stroke-linecap="round" stroke-linejoin="round"/>
</svg>
