<svg width="126" height="134" viewBox="0 0 126 134" fill="none" xmlns="http://www.w3.org/2000/svg">
<g clip-path="url(#clip0_2221_2103)">
<path fill-rule="evenodd" clip-rule="evenodd" d="M66.2571 134.001H59.145V111.308C40.656 109.566 26.1777 94.3572 26.1777 75.9522C26.1777 56.3882 42.5744 40.4355 62.681 40.4355H62.7144C82.8209 40.4355 99.2243 56.3882 99.2243 75.9522C99.2243 94.3572 84.7126 109.566 66.2571 111.308V134.001ZM62.7144 45.9228C45.6559 45.9228 31.8126 59.4903 31.7926 76.2336C31.7926 75.5837 31.8193 74.9405 31.8862 74.2973C32.8353 73.3526 33.8113 72.4079 34.8072 71.4498C35.7965 70.4917 36.7992 69.5136 37.8219 68.4952C39.239 67.0882 40.6895 66.4517 42.3873 66.1971C42.013 66.1033 41.6253 66.0496 41.2376 66.0429C39.7269 66.0764 38.2764 66.6124 37.1133 67.5705C36.2377 68.2204 35.2417 69.2456 34.072 70.4583C33.457 71.0948 32.7952 71.7781 32.08 72.4816L32.0332 72.5218C32.1201 71.7982 32.2404 71.0746 32.4075 70.3644L34.3527 68.4952C36.3446 66.5053 38.4235 66.063 41.1574 66.0362H41.017H41.3779C41.3378 66.0362 41.2911 66.0362 41.2443 66.0362C41.8392 66.0362 42.4073 66.063 42.9421 66.1166C43.4768 66.063 44.0383 66.0363 44.6332 66.0296H44.4862H44.8538C44.8137 66.0296 44.7669 66.0296 44.7201 66.0296C45.3083 66.0296 45.8565 66.0563 46.3845 66.1099C46.9193 66.0563 47.4674 66.0295 48.0489 66.0229H47.9152H48.2762C48.2361 66.0229 48.1893 66.0229 48.1425 66.0229C48.6706 66.0229 49.1719 66.0429 49.6532 66.0831C50.2815 66.0161 50.9499 65.9893 51.6652 65.9893C51.1705 65.9893 50.6826 66.043 50.208 66.1502C50.6692 66.2105 51.1037 66.3042 51.5315 66.4315C51.9058 66.3244 52.2868 66.2439 52.6812 66.1769C52.2868 66.0831 51.8857 66.0295 51.4713 66.0161C52.093 66.0161 52.6812 66.0496 53.2427 66.1099C53.7841 66.0496 54.3523 66.0228 54.9539 66.0161H54.8135H55.1744C55.1343 66.0161 55.0875 66.0161 55.0408 66.0161C57.0728 66.0295 58.7372 66.264 60.2746 67.2959C61.6248 68.2003 62.5607 69.9223 63.4296 71.5303C63.6703 71.9657 63.8975 72.3878 64.1315 72.7898C64.8734 74.0427 65.4683 75.4229 66.0699 76.8098L66.1234 76.9371L66.1635 76.8634C66.9255 75.4029 67.8146 73.681 68.9375 72.8167C70.0137 71.9724 71.2771 71.8519 72.8011 71.9121C72.7342 71.9055 72.6674 71.9055 72.6072 71.9121C73.1086 71.9389 73.543 71.9993 73.924 72.0796C74.6393 71.8988 75.4214 71.8787 76.2836 71.9121C76.2168 71.9121 76.1499 71.9055 76.0764 71.9121C76.5711 71.9389 76.9989 71.9925 77.3665 72.0729C78.075 71.8987 78.8437 71.8787 79.6993 71.9121C79.6392 71.9055 79.5723 71.9055 79.5055 71.9121C79.9801 71.9389 80.3945 71.9925 80.7555 72.0662C81.4506 71.8987 82.2126 71.8787 83.0549 71.9121C82.9947 71.9121 82.9346 71.9055 82.8744 71.9121C83.3958 71.9389 83.8369 71.9992 84.2246 72.0863C84.9465 71.8987 85.7353 71.8787 86.6043 71.9121C86.5374 71.9055 86.4706 71.9055 86.4037 71.9121C89.4184 72.0863 89.9598 73.2388 91.0159 75.4832C91.1964 75.8585 91.3903 76.2738 91.6108 76.716H89.8261C89.766 76.5753 89.7058 76.4347 89.6456 76.2939C88.8636 74.4649 88.0815 72.6357 85.8088 71.9791C85.488 72.0394 85.1805 72.1466 84.8931 72.2873C86.2366 72.8166 86.7313 73.8619 87.4933 75.4832C87.6738 75.8585 87.8676 76.2738 88.0949 76.716H86.3102C86.2433 76.5753 86.1831 76.4347 86.123 76.2939C85.5882 75.0344 85.0468 73.7747 84.0241 72.897C83.73 73.1651 83.4693 73.4665 83.2487 73.7881C83.5428 74.2638 83.8102 74.8267 84.1177 75.4832C84.2982 75.8585 84.492 76.2738 84.7126 76.716H82.9279C82.8677 76.5821 82.8142 76.4413 82.7541 76.3074C82.6338 76.0259 82.5134 75.7445 82.3864 75.4698C81.5175 77.3056 80.5817 79.1146 79.6525 80.9035C78.2689 83.5634 76.6847 85.4796 72.9949 85.2585C73.6433 85.225 74.2783 85.0173 74.8131 84.6488C76.7916 83.5299 77.7542 81.473 78.7635 79.3022C79.0376 78.7127 79.3183 78.1096 79.6191 77.52C79.7328 77.3123 79.8464 77.0913 79.9667 76.8702L80.0402 76.716H79.4988C79.4386 76.5753 79.3785 76.4347 79.3183 76.2939C79.1846 75.9724 79.0443 75.6507 78.8972 75.3358C78.0082 77.2118 77.0456 79.0677 76.0965 80.9035C75.0871 82.8398 73.9708 84.3876 72.0056 84.9972C72.3399 85.138 72.6808 85.2385 73.035 85.292C72.273 85.4663 71.5578 85.4327 70.8827 85.225C70.4415 85.2786 69.9602 85.2854 69.4389 85.2585C69.7798 85.2384 70.114 85.1714 70.4348 85.0642C70.1474 84.9369 69.8666 84.7828 69.5926 84.6019C69.2784 84.7761 68.9308 84.9169 68.5565 85.0241C68.864 85.1514 69.1848 85.2385 69.5191 85.292C68.7704 85.4596 68.0686 85.4328 67.4068 85.2384C66.9991 85.2786 66.5646 85.2854 66.09 85.2585C66.3975 85.2451 66.6983 85.1848 66.9924 85.0978C66.6916 84.9705 66.3975 84.8163 66.1167 84.6287C65.8226 84.7828 65.5018 84.9168 65.1609 85.0173C65.475 85.1446 65.8026 85.2385 66.1368 85.292C65.3881 85.4663 64.6796 85.4328 64.0178 85.2384C63.5967 85.2786 63.1489 85.2854 62.6609 85.2585C62.9818 85.2384 63.2959 85.1848 63.59 85.0843C63.2826 84.957 62.9885 84.7962 62.6943 84.6019C62.3935 84.7694 62.066 84.9034 61.7184 85.0106C62.0393 85.1446 62.3735 85.2385 62.7211 85.292C61.9591 85.4663 61.2505 85.4327 60.5821 85.2317C60.1543 85.2786 59.6931 85.2854 59.1917 85.2585C59.5193 85.2384 59.8401 85.1782 60.1476 85.0777C57.1597 83.8315 54.994 79.2219 52.9486 74.8601C52.3737 73.6273 51.8055 72.4213 51.2307 71.3091C50.8163 70.351 50.2615 69.4733 49.5863 68.6961C49.2655 68.9976 48.938 69.3326 48.5904 69.6877C48.9647 70.284 49.3056 70.9205 49.6398 71.5303C49.8738 71.9657 50.1077 72.3945 50.3417 72.7898C51.0703 74.036 51.6652 75.4095 52.2601 76.7897C53.1424 78.8265 54.0314 80.8901 55.4084 82.6388C56.5113 84.0659 57.7546 85.0576 59.2452 85.292C54.8335 86.2971 52.0529 80.3675 49.4727 74.8467C48.8978 73.6206 48.3297 72.4146 47.7615 71.3091C47.6746 71.1416 47.5877 70.9809 47.4941 70.8134C46.9861 71.336 46.4514 71.892 45.8765 72.4548C44.4193 73.8819 42.8351 75.4832 41.1975 77.1516C38.5772 79.8115 35.8032 82.6254 33.1495 85.1044C32.9891 84.5952 32.842 84.0727 32.7351 83.5434C35.3821 81.0644 37.8553 78.592 40.402 76.0594C42.4608 74.0025 44.5664 71.8987 46.8457 69.7078C46.6118 69.346 46.3645 68.9909 46.0837 68.6492C45.5423 69.1651 44.9608 69.7681 44.3324 70.418C43.7242 71.0478 43.0624 71.7245 42.3539 72.428C40.9969 73.768 39.5331 75.2554 38.009 76.8031C36.2043 78.6456 34.3193 80.5618 32.441 82.4043C32.3273 81.8549 32.2204 81.2921 32.1535 80.7025C33.8447 79.061 35.5024 77.4128 37.1869 75.7379C39.5464 73.3862 41.9662 70.9809 44.6265 68.4415C44.8538 68.2204 45.0811 68.0128 45.3083 67.8252C45.0543 67.5974 44.787 67.3762 44.4995 67.1819C44.3324 67.2958 44.1653 67.4164 44.0116 67.5437C43.1827 68.1601 42.267 69.1048 41.1841 70.2304C40.5157 70.9138 39.7871 71.6709 38.9783 72.4548C37.4877 73.8886 35.87 75.5436 34.1923 77.2521C33.4637 77.9958 32.7217 78.7528 31.9798 79.5033V79.4765C31.9196 78.8869 31.8661 78.3039 31.8527 77.7344C32.3407 77.2453 32.8353 76.7495 33.33 76.2604L33.35 76.2336C35.8567 73.7278 38.4034 71.1685 41.2443 68.4683C42.0664 67.6576 42.8953 67.1015 43.7776 66.7263C43.4902 66.5588 43.1894 66.4248 42.8752 66.3109C42.0464 66.5722 41.271 66.9876 40.5892 67.5437C39.7069 68.1936 38.7042 69.2321 37.5278 70.4448C36.9195 71.0746 36.2577 71.758 35.5492 72.4548C34.5465 73.433 33.4837 74.5051 32.3808 75.6172C32.187 75.8116 31.9931 76.0126 31.7926 76.2136V76.2403C31.7926 92.9971 45.6359 106.585 62.7144 106.585C79.7929 106.585 93.6295 92.9971 93.6295 76.2403C93.6295 59.4836 79.7929 45.896 62.7144 45.896V45.9228ZM85.9425 71.9791L86.2166 71.9456C86.1297 71.9523 86.0361 71.9657 85.9425 71.9791ZM82.2728 71.9992C82.6739 72.1131 83.0348 72.2672 83.349 72.4481C83.1418 72.562 82.9346 72.6894 82.734 72.8434C82.6806 72.8904 82.6271 72.9305 82.5736 72.9774C82.2594 72.6826 81.8918 72.4481 81.4172 72.2806C81.6913 72.1466 81.9787 72.0528 82.2728 71.9992ZM80.5549 72.8502C80.976 73.1919 81.3236 73.6072 81.6177 74.0494C81.2902 74.505 80.9827 75.0075 80.6953 75.5234V75.51H80.6886C80.3611 74.8065 80.0803 74.2102 79.7595 73.7211C79.9868 73.3995 80.2541 73.1115 80.5549 72.8502ZM70.4682 84.0324C70.7356 84.2669 71.0164 84.4746 71.3038 84.6555C73.2489 83.5299 74.2048 81.4798 75.2075 79.329C75.4815 78.7394 75.7622 78.1364 76.0697 77.5468C76.1767 77.3391 76.2903 77.118 76.4106 76.8969L76.4842 76.7429H76.0096C75.9895 76.6893 75.9628 76.6423 75.9427 76.5887C75.9093 76.5016 75.8692 76.4212 75.8358 76.3341C75.7155 76.0594 75.6018 75.7847 75.4748 75.5167C74.6059 77.3391 73.67 79.1481 72.7476 80.9304C72.0992 82.1765 71.404 83.2619 70.4682 84.0324ZM69.6461 83.2084C69.499 83.0341 69.352 82.8532 69.2049 82.6656C69.0378 82.4512 68.8707 82.2301 68.7169 82.0023C68.9242 81.6606 69.1247 81.3055 69.3185 80.9304C70.3412 78.9605 71.3706 76.9639 72.3198 74.9405C72.6139 74.1633 73.0952 73.4665 73.7102 72.9104C74.1045 73.2454 74.4254 73.634 74.7061 74.0629C74.0845 74.9137 73.5497 75.959 73.0618 76.8903C72.9415 77.118 72.8278 77.3391 72.7209 77.5468C72.4134 78.1364 72.1326 78.7394 71.8586 79.329C71.1968 80.7427 70.5618 82.1162 69.6461 83.2084ZM67.9416 83.1212C68.229 83.4562 68.5231 83.7644 68.8306 84.0324C68.5498 84.2736 68.2424 84.488 67.9081 84.6756C67.8948 84.689 67.8814 84.6957 67.868 84.7091C67.5672 84.5282 67.2798 84.3139 66.9991 84.0727C67.34 83.798 67.6541 83.4763 67.9416 83.1212ZM67.8346 80.5819C68.0351 80.1732 68.2357 79.7579 68.4295 79.329C68.7036 78.7394 68.9843 78.1431 69.2918 77.5468C69.3987 77.3391 69.5124 77.1247 69.6327 76.8969C70.3947 75.4296 71.2837 73.7077 72.4067 72.8434C72.6072 72.6826 72.8211 72.5486 73.035 72.4415C72.7276 72.2673 72.38 72.1199 71.9923 72.0059C71.4776 72.1064 70.9896 72.3209 70.5551 72.6357C69.7864 73.2321 69.1982 74.0293 68.8506 74.9405C68.2424 76.2403 67.6007 77.5334 66.9456 78.8131C67.2197 79.4094 67.5138 80.0057 67.8346 80.5819ZM66.09 80.4613C66.4108 81.004 66.7384 81.5199 67.0726 81.9956C66.7985 82.4512 66.5044 82.8733 66.1769 83.2619C66.0098 83.0743 65.8427 82.8733 65.6823 82.6656C65.5218 82.4646 65.3681 82.2569 65.221 82.0425C65.4416 81.6874 65.6488 81.319 65.8494 80.9304C65.9296 80.7696 66.0098 80.6154 66.09 80.4613ZM65.1943 78.8333C64.5325 77.567 63.8975 76.2135 63.2759 74.8936C62.701 73.6608 62.1262 72.4482 61.5513 71.3359C60.7158 69.7146 59.6864 68.006 57.8816 66.9474C57.0327 66.3779 56.0434 66.063 55.0274 66.0429C54.5929 66.0496 54.1651 66.1032 53.7507 66.1903C54.8335 66.3578 55.8161 66.6929 56.752 67.3227C58.1089 68.2271 59.0447 69.9491 59.9137 71.5571C60.1476 71.9925 60.3816 72.4146 60.6155 72.8167C61.3575 74.0695 61.9457 75.4497 62.5473 76.8367C63.1021 78.1163 63.6636 79.4094 64.3454 80.6288C64.5526 80.2067 64.7598 79.7713 64.9603 79.329C65.0406 79.1615 65.1141 79.0008 65.1943 78.8333ZM49.6799 66.3109C50.0275 66.4248 50.3617 66.5722 50.6826 66.7531C50.3751 66.8804 50.0743 67.0345 49.7802 67.2087C49.4393 67.001 49.0984 66.8268 48.7441 66.6794C49.0449 66.532 49.3591 66.4114 49.6799 66.3109ZM50.9165 67.5705C50.8029 67.6509 50.6959 67.738 50.5823 67.8318C51.5983 68.7832 52.3737 70.1969 53.0956 71.5369C53.3429 71.9791 53.5769 72.4146 53.8175 72.8167C54.5461 74.0628 55.141 75.4296 55.7359 76.8098C56.6116 78.8466 57.5073 80.9102 58.8843 82.6656C59.5326 83.5098 60.2412 84.2066 61.0166 84.6756C61.3441 84.488 61.6516 84.2736 61.9323 84.0324C59.7532 82.0894 58.0287 78.4111 56.3776 74.8936C55.8028 73.6608 55.2346 72.4482 54.6531 71.3359C53.8844 69.8419 52.9486 68.274 51.3978 67.2087C51.2307 67.3226 51.0703 67.4432 50.9165 67.5705ZM47.8885 67.1685C48.2094 67.403 48.5102 67.6442 48.7976 67.9122C48.577 68.0864 48.3631 68.2875 48.1492 68.4952C48.069 68.5756 47.9888 68.6492 47.9086 68.7229C47.6479 68.3879 47.3671 68.073 47.0663 67.7983C47.18 67.7045 47.2869 67.6241 47.3939 67.5437C47.5543 67.4097 47.7214 67.2891 47.8885 67.1685ZM53.1691 66.3444C52.855 66.4449 52.5475 66.5655 52.2534 66.7129C52.6344 66.8737 53.0087 67.0748 53.3764 67.3227C54.7266 68.2271 55.6624 69.9491 56.5314 71.5571C56.772 71.9925 57.006 72.4146 57.2399 72.8167C57.9685 74.0628 58.5634 75.4363 59.1583 76.8166C60.0407 78.8534 60.9297 80.9169 62.3067 82.6656C62.4537 82.8532 62.6008 83.0341 62.7478 83.2084C63.0553 82.8465 63.3294 82.4513 63.5767 82.0359C62.173 80.0392 60.943 77.4262 59.7599 74.8936C59.1784 73.6608 58.6102 72.4482 58.0354 71.3359C57.1931 69.7146 56.1637 68.006 54.3723 66.9474C53.998 66.6928 53.5903 66.4918 53.1691 66.3444ZM82.3129 71.9925L82.7407 71.9389C82.6003 71.9524 82.4533 71.9657 82.3129 71.9925ZM78.9039 71.9992C79.2715 72.1064 79.5924 72.2404 79.8865 72.4012C79.6459 72.5218 79.4052 72.6693 79.1846 72.8434C79.1512 72.8703 79.1178 72.897 79.0844 72.9238C78.7969 72.6625 78.456 72.4548 78.0282 72.2941C78.309 72.16 78.6031 72.0595 78.9039 71.9992ZM77.166 72.8836C77.547 73.1985 77.8611 73.5603 78.1285 73.9623C77.7943 74.4112 77.4801 74.9204 77.186 75.4363C76.8919 74.8065 76.6312 74.2639 76.3438 73.8083C76.5777 73.4666 76.8585 73.1583 77.166 72.8836ZM64.4456 83.148C64.7398 83.4897 65.0472 83.7979 65.3547 84.0793C65.094 84.3004 64.8066 84.5014 64.4924 84.6756C64.4791 84.6823 64.4724 84.6891 64.4657 84.6958C64.1582 84.5082 63.8574 84.287 63.57 84.0392C63.8908 83.7711 64.1783 83.4763 64.4456 83.148ZM48.1291 66.0429C48.4834 66.0496 48.8377 66.0898 49.1786 66.1702C48.7708 66.2306 48.3831 66.3176 48.0088 66.4248C47.6479 66.3176 47.2735 66.2439 46.8859 66.1836C47.2936 66.0965 47.7147 66.0496 48.1291 66.0429ZM47.1866 66.7129C46.8725 66.8469 46.565 67.001 46.2575 67.1819C45.9634 67.001 45.6626 66.8469 45.3484 66.7129C45.6626 66.5588 45.9902 66.4315 46.3244 66.331C46.6185 66.4315 46.9126 66.5588 47.1866 66.7129ZM79.0175 71.9791L79.3317 71.9456C79.2314 71.9523 79.1245 71.9657 79.0175 71.9791ZM75.4815 72.0059C75.8558 72.1131 76.1967 72.2538 76.4975 72.4213C76.2703 72.5352 76.0497 72.6759 75.8291 72.8434C75.7823 72.8836 75.7288 72.9305 75.6754 72.9708C75.3746 72.6961 75.027 72.4683 74.5858 72.3008C74.8665 72.1668 75.174 72.0662 75.4815 72.0059ZM44.7068 66.0429C45.0878 66.0496 45.4688 66.1032 45.8431 66.1903C45.422 66.2506 45.0209 66.3377 44.6265 66.4516C44.2455 66.3377 43.8578 66.2506 43.4501 66.1903C43.8578 66.1032 44.279 66.0496 44.7068 66.0429ZM75.6018 71.9791L75.9026 71.9456C75.8024 71.9523 75.7021 71.9657 75.6018 71.9791ZM72.1527 71.9791C72.2463 71.9657 72.3399 71.9523 72.4334 71.9456L72.1527 71.9791Z" fill="white"/>
<path d="M125.998 81.3438V81.4643L117.128 92.6801L122.87 94.5427L109.702 103.883L113.833 107.085L95.4038 113.651L70.4512 115.695L70.4913 114.194C76.2264 113.175 81.6742 110.904 86.4334 107.521C91.186 104.144 95.1365 99.7553 97.9907 94.6633L125.998 81.3438Z" fill="white"/>
<path d="M125.998 66.859V67.194L120.497 78.7582L125.37 79.0597L99.6953 91.2604C103.385 82.7246 103.793 73.1168 100.845 64.2929L117.837 47.1074L117.248 57.9882L122.676 55.1541L120.577 68.6948L125.998 66.859Z" fill="white"/>
<path d="M61.9189 0L56.5447 9.9294L52.8416 5.2193L47.0195 18.76L42.16 13.7685L37.1868 25.0379L32.6348 22.579L41.6854 43.7309C47.7748 39.9253 54.78 37.8483 61.9523 37.721V0.0201L61.9189 0Z" fill="white"/>
<path d="M64.3007 0L69.6682 9.9294L73.3647 5.2193L79.1934 18.76L84.0463 13.7685L89.0261 25.0379L93.5848 22.579L84.5476 43.7309C78.4515 39.9186 71.4329 37.8416 64.2539 37.721V0.0201L64.3007 0Z" fill="white"/>
<path d="M99.6941 91.2598L99.6807 91.2933L99.6406 91.2799L99.6941 91.2598Z" fill="white"/>
<path d="M0 66.7921L5.60817 68.6948L3.51597 55.1541L8.9704 57.948L8.38886 47.0605L25.3805 64.246C22.426 73.0834 22.8404 82.7046 26.5436 91.2471V91.2806L0.822175 79.0598L5.68838 78.7583L0 66.7921Z" fill="white"/>
<path d="M26.2754 61.873C29.0829 55.1127 33.7352 49.277 39.6976 45.0426L30.5802 23.7031L28.234 33.2037L22.8664 30.4567L19.7315 39.6491L15.3265 37.1366L13.9094 46.2687L9.78516 45.2101L26.2754 61.873Z" fill="white"/>
<path d="M55.735 114.194C49.9865 113.183 44.5387 110.905 39.7728 107.528C35.0135 104.151 31.0564 99.7559 28.1955 94.6639L0.0410156 81.2773L9.06489 92.6807L3.32972 94.5433L16.4912 103.883L12.367 107.086L30.789 113.652L55.735 115.695V114.194Z" fill="white"/>
<path d="M86.4922 45.0426C92.4613 49.277 97.1136 55.1127 99.921 61.873L116.405 45.2168L112.28 46.2754L110.857 37.1433L106.458 39.6491L103.323 30.4567L97.9558 33.2037L95.6096 23.7031L86.4922 45.0426Z" fill="white"/>
</g>
<defs>
<clipPath id="clip0_2221_2103">
<rect width="126" height="134" fill="white"/>
</clipPath>
</defs>
</svg>
