<svg width="74" height="77" viewBox="0 0 74 77" fill="none" xmlns="http://www.w3.org/2000/svg">
<g clip-path="url(#clip0_2221_2118)">
<path fill-rule="evenodd" clip-rule="evenodd" d="M37.6041 76.9996H33.5077V63.9597C22.8586 62.9587 14.5195 54.2192 14.5195 43.6432C14.5195 32.4012 23.9636 23.2344 35.5444 23.2344H35.5636C47.1444 23.2344 56.5923 32.4012 56.5923 43.6432C56.5923 54.2192 48.234 62.9587 37.6041 63.9597V76.9996ZM35.5636 26.3875C25.7384 26.3875 17.7651 34.1838 17.7535 43.8049C17.7535 43.4315 17.7689 43.0619 17.8074 42.6923C18.3541 42.1494 18.9162 41.6066 19.4899 41.056C20.0597 40.5055 20.6372 39.9434 21.2262 39.3582C22.0424 38.5497 22.8779 38.1839 23.8558 38.0376C23.6402 37.9837 23.4169 37.9529 23.1936 37.9491C22.3235 37.9683 21.488 38.2763 20.8181 38.8269C20.3138 39.2003 19.7401 39.7894 19.0664 40.4862C18.7122 40.852 18.331 41.2447 17.9191 41.6489L17.8921 41.672C17.9422 41.2562 18.0115 40.8404 18.1077 40.4323L19.2281 39.3582C20.3754 38.2147 21.5727 37.9606 23.1474 37.9452H23.0665H23.2744C23.2513 37.9452 23.2244 37.9452 23.1974 37.9452C23.5401 37.9452 23.8673 37.9606 24.1753 37.9914C24.4833 37.9606 24.8067 37.9452 25.1494 37.9414H25.0647H25.2764C25.2533 37.9414 25.2264 37.9414 25.1994 37.9414C25.5382 37.9414 25.8539 37.9568 26.1581 37.9876C26.4661 37.9568 26.7818 37.9414 27.1167 37.9375H27.0397H27.2476C27.2245 37.9375 27.1976 37.9375 27.1706 37.9375C27.4748 37.9375 27.7635 37.9491 28.0407 37.9722C28.4026 37.9337 28.7876 37.9183 29.1996 37.9183C28.9147 37.9183 28.6336 37.9491 28.3603 38.0107C28.6259 38.0453 28.8762 38.0992 29.1226 38.1724C29.3382 38.1108 29.5576 38.0646 29.7848 38.0261C29.5576 37.9722 29.3266 37.9414 29.0879 37.9337C29.446 37.9337 29.7848 37.9529 30.1082 37.9876C30.42 37.9529 30.7473 37.9375 31.0938 37.9337H31.0129H31.2208C31.1977 37.9337 31.1708 37.9337 31.1438 37.9337C32.3142 37.9414 33.2729 38.0761 34.1584 38.669C34.9361 39.1888 35.4751 40.1782 35.9756 41.1022C36.1142 41.3525 36.2451 41.595 36.3798 41.826C36.8072 42.546 37.1498 43.3391 37.4963 44.136L37.5271 44.2092L37.5502 44.1668C37.9891 43.3275 38.5012 42.3381 39.148 41.8414C39.7678 41.3563 40.4955 41.287 41.3733 41.3217C41.3348 41.3178 41.2963 41.3178 41.2616 41.3217C41.5504 41.3371 41.8006 41.3717 42.0201 41.4179C42.432 41.314 42.8825 41.3024 43.3791 41.3217C43.3406 41.3217 43.3021 41.3178 43.2598 41.3217C43.5447 41.3371 43.7911 41.3679 44.0028 41.4141C44.4109 41.314 44.8537 41.3024 45.3465 41.3217C45.3118 41.3178 45.2733 41.3178 45.2348 41.3217C45.5082 41.3371 45.7469 41.3679 45.9548 41.4102C46.3552 41.314 46.7941 41.3024 47.2792 41.3217C47.2445 41.3217 47.2099 41.3178 47.1752 41.3217C47.4755 41.3371 47.7296 41.3717 47.9529 41.4218C48.3687 41.314 48.823 41.3024 49.3235 41.3217C49.285 41.3178 49.2465 41.3178 49.208 41.3217C50.9444 41.4218 51.2562 42.084 51.8645 43.3737C51.9685 43.5893 52.0801 43.828 52.2072 44.0821H51.1792C51.1446 44.0013 51.1099 43.9204 51.0753 43.8396C50.6248 42.7885 50.1744 41.7375 48.8654 41.3602C48.6806 41.3948 48.5035 41.4564 48.3379 41.5373C49.1118 41.8414 49.3967 42.442 49.8356 43.3737C49.9395 43.5893 50.0512 43.828 50.1821 44.0821H49.1541C49.1156 44.0013 49.081 43.9204 49.0463 43.8396C48.7383 43.1158 48.4265 42.392 47.8374 41.8876C47.668 42.0416 47.5179 42.2149 47.3908 42.3997C47.5602 42.673 47.7142 42.9964 47.8913 43.3737C47.9953 43.5893 48.1069 43.828 48.234 44.0821H47.206C47.1714 44.0051 47.1406 43.9243 47.1059 43.8473C47.0366 43.6856 46.9673 43.5239 46.8942 43.366C46.3937 44.4209 45.8547 45.4604 45.3195 46.4884C44.5226 48.0168 43.6101 49.1179 41.4849 48.9909C41.8584 48.9716 42.2241 48.8523 42.5321 48.6405C43.6717 47.9976 44.2261 46.8156 44.8075 45.5682C44.9653 45.2294 45.127 44.8829 45.3003 44.5441C45.3657 44.4248 45.4312 44.2977 45.5005 44.1707L45.5428 44.0821H45.231C45.1963 44.0013 45.1617 43.9204 45.127 43.8396C45.05 43.6548 44.9692 43.47 44.8845 43.289C44.3724 44.367 43.818 45.4335 43.2713 46.4884C42.69 47.601 42.047 48.4904 40.9151 48.8407C41.1076 48.9216 41.304 48.9793 41.508 49.0101C41.0691 49.1102 40.6572 49.091 40.2683 48.9716C40.0142 49.0024 39.737 49.0063 39.4367 48.9909C39.6331 48.9793 39.8256 48.9408 40.0104 48.8792C39.8448 48.8061 39.6831 48.7175 39.5253 48.6136C39.3443 48.7137 39.1441 48.7945 38.9285 48.8561C39.1056 48.9293 39.2904 48.9793 39.4829 49.0101C39.0517 49.1064 38.6475 49.091 38.2663 48.9793C38.0315 49.0024 37.7812 49.0063 37.5079 48.9909C37.685 48.9832 37.8582 48.9485 38.0276 48.8985C37.8544 48.8253 37.685 48.7368 37.5233 48.629C37.3539 48.7175 37.1691 48.7945 36.9727 48.8523C37.1537 48.9254 37.3423 48.9793 37.5348 49.0101C37.1036 49.1102 36.6955 49.091 36.3144 48.9793C36.0718 49.0024 35.8139 49.0063 35.5328 48.9909C35.7176 48.9793 35.8986 48.9485 36.068 48.8908C35.8909 48.8176 35.7215 48.7252 35.5521 48.6136C35.3788 48.7098 35.1902 48.7868 34.99 48.8484C35.1748 48.9254 35.3673 48.9793 35.5675 49.0101C35.1286 49.1102 34.7205 49.091 34.3355 48.9755C34.0891 49.0024 33.8234 49.0063 33.5347 48.9909C33.7233 48.9793 33.9081 48.9447 34.0852 48.8869C32.3643 48.1708 31.1169 45.522 29.9388 43.0157C29.6077 42.3073 29.2804 41.6143 28.9493 40.9752C28.7106 40.4246 28.3911 39.9203 28.0022 39.4737C27.8174 39.6469 27.6288 39.8394 27.4286 40.0435C27.6442 40.3861 27.8405 40.7519 28.033 41.1022C28.1678 41.3525 28.3025 41.5989 28.4373 41.826C28.8569 42.5421 29.1996 43.3314 29.5422 44.1245C30.0504 45.2949 30.5625 46.4807 31.3556 47.4855C31.9908 48.3056 32.7069 48.8754 33.5655 49.0101C31.0245 49.5876 29.4229 46.1804 27.9368 43.008C27.6057 42.3034 27.2784 41.6104 26.9512 40.9752C26.9011 40.8789 26.8511 40.7865 26.7972 40.6903C26.5046 40.9906 26.1966 41.3101 25.8655 41.6335C25.0262 42.4536 24.1137 43.3737 23.1705 44.3324C21.6613 45.8608 20.0635 47.4778 18.5351 48.9023C18.4427 48.6097 18.358 48.3094 18.2964 48.0053C19.821 46.5808 21.2455 45.1601 22.7123 43.7048C23.8981 42.5229 25.1109 41.314 26.4237 40.055C26.289 39.8471 26.1465 39.6431 25.9848 39.4467C25.673 39.7432 25.338 40.0897 24.9761 40.4631C24.6258 40.825 24.2446 41.2139 23.8365 41.6181C23.055 42.3881 22.2118 43.2428 21.334 44.1322C20.2945 45.1909 19.2088 46.292 18.127 47.3508C18.0615 47.0351 17.9999 46.7117 17.9614 46.3729C18.9355 45.4296 19.8903 44.4825 20.8605 43.52C22.2195 42.1687 23.6132 40.7865 25.1455 39.3274C25.2764 39.2003 25.4073 39.081 25.5382 38.9732C25.3919 38.8423 25.2379 38.7152 25.0724 38.6036C24.9761 38.669 24.8799 38.7383 24.7913 38.8115C24.3139 39.1657 23.7865 39.7085 23.1628 40.3553C22.7778 40.748 22.3581 41.1831 21.8923 41.6335C21.0337 42.4574 20.102 43.4084 19.1357 44.3901C18.716 44.8175 18.2887 45.2525 17.8613 45.6837V45.6683C17.8267 45.3295 17.7959 44.9946 17.7882 44.6673C18.0692 44.3863 18.3541 44.1014 18.639 43.8203L18.6506 43.8049C20.0943 42.365 21.5612 40.8943 23.1974 39.3428C23.671 38.8769 24.1484 38.5574 24.6566 38.3418C24.491 38.2455 24.3178 38.1685 24.1368 38.1031C23.6594 38.2532 23.2128 38.4919 22.8201 38.8115C22.3119 39.1849 21.7344 39.7817 21.0568 40.4785C20.7065 40.8404 20.3253 41.2331 19.9172 41.6335C19.3397 42.1956 18.7276 42.8116 18.0923 43.4507C17.9807 43.5624 17.869 43.6779 17.7535 43.7934V43.8088C17.7535 53.4376 25.7269 61.2454 35.5636 61.2454C45.4004 61.2454 53.3699 53.4376 53.3699 43.8088C53.3699 34.1799 45.4004 26.3721 35.5636 26.3721V26.3875ZM48.9424 41.3602L49.1002 41.3409C49.0502 41.3448 48.9963 41.3525 48.9424 41.3602ZM46.8287 41.3717C47.0597 41.4372 47.2676 41.5257 47.4486 41.6297C47.3292 41.6951 47.2099 41.7683 47.0944 41.8568C47.0636 41.8838 47.0328 41.9069 47.002 41.9338C46.821 41.7644 46.6093 41.6297 46.3359 41.5334C46.4938 41.4564 46.6593 41.4025 46.8287 41.3717ZM45.8393 41.8607C46.0818 42.057 46.282 42.2957 46.4514 42.5498C46.2628 42.8116 46.0857 43.1004 45.9201 43.3968V43.3891H45.9163C45.7276 42.9849 45.5659 42.6422 45.3811 42.3612C45.512 42.1764 45.666 42.0108 45.8393 41.8607ZM40.0296 48.2863C40.1836 48.4211 40.3453 48.5404 40.5109 48.6444C41.6312 47.9976 42.1818 46.8195 42.7593 45.5836C42.9171 45.2448 43.0788 44.8983 43.2559 44.5595C43.3175 44.4402 43.383 44.3131 43.4523 44.1861L43.4946 44.0975H43.2213C43.2097 44.0667 43.1943 44.0398 43.1828 44.009C43.1635 43.9589 43.1404 43.9127 43.1212 43.8627C43.0519 43.7048 42.9864 43.547 42.9133 43.393C42.4128 44.4402 41.8738 45.4797 41.3425 46.5038C40.969 47.2199 40.5686 47.8436 40.0296 48.2863ZM39.5561 47.8128C39.4714 47.7127 39.3867 47.6087 39.302 47.5009C39.2057 47.3777 39.1095 47.2507 39.0209 47.1198C39.1403 46.9234 39.2558 46.7194 39.3674 46.5038C39.9565 45.3719 40.5494 44.2246 41.0961 43.0619C41.2655 42.6153 41.5427 42.2149 41.8969 41.8953C42.124 42.0878 42.3088 42.3111 42.4705 42.5575C42.1125 43.0465 41.8045 43.6471 41.5234 44.1822C41.4541 44.3131 41.3887 44.4402 41.3271 44.5595C41.15 44.8983 40.9883 45.2448 40.8304 45.5836C40.4493 46.396 40.0835 47.1852 39.5561 47.8128ZM38.5743 47.7627C38.7399 47.9552 38.9093 48.1323 39.0864 48.2863C38.9247 48.4249 38.7476 48.5481 38.5551 48.6559C38.5474 48.6636 38.5397 48.6675 38.532 48.6752C38.3587 48.5712 38.1932 48.448 38.0315 48.3094C38.2278 48.1516 38.4088 47.9668 38.5743 47.7627ZM38.5127 46.3036C38.6282 46.0687 38.7437 45.83 38.8554 45.5836C39.0132 45.2448 39.1749 44.9022 39.352 44.5595C39.4136 44.4402 39.4791 44.317 39.5484 44.1861C39.9873 43.3429 40.4993 42.3535 41.1461 41.8568C41.2616 41.7644 41.3848 41.6874 41.508 41.6258C41.3309 41.5257 41.1307 41.441 40.9074 41.3756C40.611 41.4333 40.3299 41.5565 40.0797 41.7375C39.6369 42.0801 39.2981 42.5383 39.0979 43.0619C38.7476 43.8088 38.378 44.5518 38.0007 45.2872C38.1585 45.6298 38.3279 45.9725 38.5127 46.3036ZM37.5079 46.2343C37.6927 46.5461 37.8813 46.8426 38.0738 47.1159C37.916 47.3777 37.7466 47.6203 37.5579 47.8436C37.4617 47.7358 37.3654 47.6203 37.273 47.5009C37.1806 47.3854 37.0921 47.2661 37.0074 47.1429C37.1344 46.9388 37.2538 46.7271 37.3693 46.5038C37.4155 46.4114 37.4617 46.3228 37.5079 46.2343ZM36.992 45.2987C36.6108 44.5711 36.2451 43.7934 35.887 43.0349C35.5559 42.3265 35.2248 41.6297 34.8937 40.9906C34.4125 40.0589 33.8196 39.0771 32.7801 38.4688C32.2911 38.1416 31.7213 37.9606 31.1361 37.9491C30.8859 37.9529 30.6395 37.9837 30.4008 38.0338C31.0245 38.13 31.5904 38.3225 32.1294 38.6844C32.911 39.2042 33.45 40.1936 33.9505 41.1176C34.0852 41.3679 34.22 41.6104 34.3547 41.8414C34.7821 42.5614 35.1209 43.3545 35.4674 44.1514C35.7869 44.8868 36.1103 45.6298 36.503 46.3305C36.6224 46.088 36.7417 45.8377 36.8572 45.5836C36.9034 45.4874 36.9458 45.395 36.992 45.2987ZM28.0561 38.1031C28.2563 38.1685 28.4488 38.2532 28.6336 38.3572C28.4565 38.4303 28.2833 38.5189 28.1139 38.619C27.9175 38.4996 27.7212 38.3995 27.5171 38.3148C27.6904 38.2301 27.8713 38.1608 28.0561 38.1031ZM28.7684 38.8269C28.7029 38.8731 28.6413 38.9231 28.5759 38.977C29.1611 39.5237 29.6077 40.3361 30.0235 41.1061C30.1659 41.3602 30.3007 41.6104 30.4393 41.8414C30.8589 42.5575 31.2016 43.3429 31.5442 44.136C32.0486 45.3064 32.5645 46.4922 33.3576 47.5009C33.731 47.986 34.1391 48.3864 34.5857 48.6559C34.7744 48.5481 34.9515 48.4249 35.1132 48.2863C33.8581 47.1698 32.8648 45.0562 31.9138 43.0349C31.5827 42.3265 31.2555 41.6297 30.9205 40.9906C30.4778 40.132 29.9388 39.2311 29.0456 38.619C28.9493 38.6844 28.8569 38.7537 28.7684 38.8269ZM27.0243 38.5959C27.2091 38.7306 27.3824 38.8692 27.5479 39.0232C27.4209 39.1233 27.2977 39.2388 27.1745 39.3582C27.1283 39.4044 27.0821 39.4467 27.0359 39.4891C26.8857 39.2966 26.724 39.1156 26.5508 38.9578C26.6162 38.9039 26.6778 38.8577 26.7394 38.8115C26.8318 38.7345 26.9281 38.6652 27.0243 38.5959ZM30.0658 38.1223C29.8849 38.1801 29.7078 38.2494 29.5384 38.3341C29.7578 38.4265 29.9734 38.542 30.1852 38.6844C30.9629 39.2042 31.5019 40.1936 32.0024 41.1176C32.141 41.3679 32.2757 41.6104 32.4105 41.8414C32.8301 42.5575 33.1728 43.3468 33.5154 44.1399C34.0236 45.3103 34.5357 46.4961 35.3288 47.5009C35.4135 47.6087 35.4982 47.7127 35.5829 47.8128C35.76 47.6049 35.9178 47.3777 36.0603 47.139C35.2518 45.9917 34.5434 44.4902 33.8619 43.0349C33.527 42.3265 33.1997 41.6297 32.8686 40.9906C32.3835 40.0589 31.7906 39.0771 30.7588 38.4688C30.5432 38.3225 30.3084 38.207 30.0658 38.1223ZM46.8518 41.3679L47.0982 41.3371C47.0174 41.3448 46.9327 41.3525 46.8518 41.3679ZM44.8883 41.3717C45.1001 41.4333 45.2849 41.5103 45.4543 41.6027C45.3157 41.672 45.1771 41.7567 45.05 41.8568C45.0308 41.8722 45.0115 41.8876 44.9923 41.903C44.8267 41.7529 44.6304 41.6335 44.384 41.5411C44.5457 41.4641 44.7151 41.4064 44.8883 41.3717ZM43.8873 41.8799C44.1068 42.0609 44.2877 42.2688 44.4417 42.4998C44.2492 42.7577 44.0683 43.0503 43.8989 43.3468C43.7295 42.9849 43.5793 42.673 43.4138 42.4112C43.5485 42.2149 43.7102 42.0378 43.8873 41.8799ZM36.5608 47.7781C36.7302 47.9745 36.9073 48.1516 37.0844 48.3133C36.9342 48.4403 36.7687 48.5558 36.5877 48.6559C36.58 48.6598 36.5762 48.6636 36.5723 48.6675C36.3952 48.5597 36.222 48.4326 36.0564 48.2902C36.2412 48.1362 36.4068 47.9668 36.5608 47.7781ZM27.1629 37.9491C27.367 37.9529 27.571 37.976 27.7674 38.0222C27.5325 38.0569 27.3092 38.1069 27.0936 38.1685C26.8857 38.1069 26.6701 38.0646 26.4468 38.0299C26.6817 37.9799 26.9242 37.9529 27.1629 37.9491ZM26.6201 38.3341C26.4391 38.4111 26.262 38.4996 26.0849 38.6036C25.9155 38.4996 25.7423 38.4111 25.5613 38.3341C25.7423 38.2455 25.9309 38.1724 26.1234 38.1146C26.2928 38.1724 26.4622 38.2455 26.6201 38.3341ZM44.9538 41.3602L45.1347 41.3409C45.077 41.3448 45.0154 41.3525 44.9538 41.3602ZM42.9171 41.3756C43.1327 41.4372 43.3291 41.518 43.5023 41.6143C43.3714 41.6797 43.2444 41.7606 43.1173 41.8568C43.0904 41.8799 43.0596 41.9069 43.0288 41.93C42.8555 41.7721 42.6553 41.6412 42.4012 41.545C42.5629 41.468 42.74 41.4102 42.9171 41.3756ZM25.1917 37.9491C25.4112 37.9529 25.6306 37.9837 25.8462 38.0338C25.6037 38.0684 25.3727 38.1185 25.1455 38.1839C24.9261 38.1185 24.7028 38.0684 24.4679 38.0338C24.7028 37.9837 24.9453 37.9529 25.1917 37.9491ZM42.9864 41.3602L43.1597 41.3409C43.1019 41.3448 43.0442 41.3525 42.9864 41.3602ZM40.9998 41.3602C41.0537 41.3525 41.1076 41.3448 41.1615 41.3409L40.9998 41.3602Z" fill="white"/>
<path d="M72.013 46.7422V46.8115L66.9041 53.2564L70.2112 54.3267L62.6267 59.6936L65.006 61.5339L54.3916 65.3069L40.0195 66.4811L40.0426 65.6187C43.3459 65.0335 46.4837 63.7284 49.2249 61.7841C51.9622 59.8437 54.2376 57.322 55.8815 54.396L72.013 46.7422Z" fill="white"/>
<path d="M72.013 38.4201V38.6126L68.8445 45.2577L71.6511 45.431L56.8633 52.4418C58.9885 47.5369 59.2233 42.016 57.5255 36.9456L67.3122 27.0703L66.9734 33.3227L70.0996 31.6942L68.8907 39.475L72.013 38.4201Z" fill="white"/>
<path d="M35.1051 0L32.0097 5.7057L29.8768 2.99915L26.5235 10.78L23.7245 7.91175L20.8601 14.3874L18.2383 12.9745L23.4512 25.1289C26.9585 22.9421 30.9933 21.7486 35.1244 21.6755V0.01155L35.1051 0Z" fill="white"/>
<path d="M36.4762 0L39.5677 5.7057L41.6968 2.99915L45.054 10.78L47.8491 7.91175L50.7173 14.3874L53.343 12.9745L48.1378 25.1289C44.6266 22.9383 40.5841 21.7448 36.4492 21.6755V0.01155L36.4762 0Z" fill="white"/>
<path d="M56.8628 52.4414L56.8551 52.4607L56.832 52.453L56.8628 52.4414Z" fill="white"/>
<path d="M-0.558594 38.3812L2.67156 39.4746L1.46651 31.6938L4.60811 33.2992L4.27316 27.043L14.0599 36.9182C12.3582 41.9964 12.5969 47.525 14.7298 52.4337V52.453L-0.0850437 45.4306L2.71776 45.2573L-0.558594 38.3812Z" fill="white"/>
<path d="M14.5761 35.5545C16.1931 31.6699 18.8727 28.3165 22.3069 25.8833L17.0555 13.6211L15.7041 19.0804L12.6126 17.5019L10.8069 22.7841L8.26977 21.3403L7.45357 26.5879L5.07812 25.9796L14.5761 35.5545Z" fill="white"/>
<path d="M31.543 65.6201C28.232 65.0388 25.0943 63.7298 22.3492 61.7894C19.608 59.849 17.3288 57.3234 15.681 54.3974L-0.535156 46.7051L4.66234 53.2578L1.35904 54.3281L8.93969 59.695L6.56424 61.5353L17.1748 65.3083L31.543 66.4825V65.6201Z" fill="white"/>
<path d="M49.2578 25.8833C52.6959 28.3165 55.3755 31.6699 56.9925 35.5545L66.4866 25.9834L64.1111 26.5917L63.2911 21.3442L60.7578 22.7841L58.9521 17.5019L55.8606 19.0804L54.5092 13.6211L49.2578 25.8833Z" fill="white"/>
</g>
<defs>
<clipPath id="clip0_2221_2118">
<rect width="72.5725" height="77" fill="white"/>
</clipPath>
</defs>
</svg>
