<svg width="28" height="28" viewBox="0 0 28 28" fill="none" xmlns="http://www.w3.org/2000/svg">
<rect width="28" height="28" rx="14" fill="black"/>
<path d="M14.8203 14.9814H8.27246V13.6016H14.8203C15.459 13.6016 15.9834 13.499 16.3936 13.2939C16.8037 13.0889 17.1055 12.7988 17.2988 12.4238C17.498 12.0488 17.5977 11.6064 17.5977 11.0967C17.5977 10.6807 17.5039 10.2822 17.3164 9.90137C17.1348 9.52051 16.8389 9.20703 16.4287 8.96094C16.0244 8.71484 15.4883 8.5918 14.8203 8.5918H11.7793V20H10.0918V7.20312H14.8203C15.7871 7.20312 16.6016 7.37012 17.2637 7.7041C17.9258 8.03223 18.4268 8.48926 18.7666 9.0752C19.1123 9.65527 19.2852 10.3232 19.2852 11.0791C19.2852 11.8994 19.1123 12.6025 18.7666 13.1885C18.4268 13.7686 17.9258 14.2139 17.2637 14.5244C16.6016 14.8291 15.7871 14.9814 14.8203 14.9814ZM14.7148 16.1855V17.5742H8.27246V16.1855H14.7148Z" fill="white"/>
</svg>
