<?xml-stylesheet type="text/css" href="svgstyle.css"?>   
<svg xmlns="http://www.w3.org/2000/svg" xmlns:xlink="http://www.w3.org/1999/xlink">
	<symbol id="vk" width="32" height="20" viewBox="0 0 32 20" fill="none">
		<path d="M17.429 20C6.49587 20 0.25984 12.4925 0 0H5.47661C5.65645 9.16918 9.69382 13.053 12.8918 13.8538V0H18.0488V7.90787C21.2068 7.56754 24.5244 3.96393 25.6436 0H30.8006C29.9411 4.88485 26.3434 8.48846 23.785 9.96997C26.3434 11.1711 30.441 14.3143 32 20H26.3233C25.1041 16.1962 22.0663 13.2532 18.0488 12.8529V20H17.429Z"/>
	</symbol>
	<symbol id="ok" width="19" height="32" viewBox="0 0 19 32" fill="none">
		<path d="M9.50049 15.9886C13.9156 15.9886 17.4948 12.4094 17.4948 7.99427C17.4948 3.57916 13.9156 0 9.50049 0C5.08532 0 1.50616 3.57916 1.50616 7.99427C1.50616 12.4094 5.08532 15.9886 9.50049 15.9886ZM9.50049 4.0614C11.6726 4.0614 13.4334 5.82215 13.4334 7.99427C13.4334 10.1664 11.6726 11.9272 9.50049 11.9272C7.32831 11.9272 5.56756 10.1664 5.56756 7.99427C5.56756 5.82261 7.32831 4.0614 9.50049 4.0614ZM18.7152 16.9639C18.2637 16.0571 17.014 15.3028 15.3524 16.612C13.107 18.3813 9.49997 18.3813 9.49997 18.3813C9.49997 18.3813 5.89296 18.3813 3.64761 16.612C1.9865 15.3028 0.736308 16.0571 0.284793 16.9639C-0.502058 18.5447 0.386788 19.3085 2.39317 20.5964C4.10671 21.6964 6.46117 22.1073 7.98198 22.2613L6.71289 23.5304C4.9252 25.3181 3.19943 27.0439 2.00212 28.2412C1.28609 28.9567 1.28609 30.1177 2.00212 30.8337L2.21795 31.0495C2.93399 31.7656 4.09442 31.7651 4.81046 31.0495L9.52128 26.3388C11.309 28.1265 13.0347 29.8522 14.232 31.0495C14.9476 31.7656 16.1085 31.7656 16.8246 31.0495L17.0404 30.8337C17.7564 30.1177 17.756 28.9572 17.0404 28.2412L12.3296 23.5304L11.0563 22.2576C12.5781 22.1007 14.9075 21.6879 16.6068 20.5969C18.6132 19.3089 19.5021 18.5447 18.7152 16.9639Z"/>
	</symbol>
	<symbol id="tg" width="36" height="30" viewBox="0 0 36 30" fill="none">
		<path d="M34.5176 0.507812C34.8411 0.536029 35.0847 0.637858 35.2422 0.823242C35.3987 1.00757 35.5478 1.366 35.4854 2.07617L35.4844 2.08398C35.4401 2.70575 35.2143 4.13613 34.9111 6.06543C34.6105 7.97829 34.2397 10.3495 33.915 12.8145L31.6963 27.3672L31.6943 27.3828L31.6924 27.3975V27.3994C31.6922 27.4014 31.692 27.405 31.6914 27.4102C31.6901 27.4215 31.688 27.4403 31.6846 27.4648C31.6776 27.5142 31.6655 27.5882 31.6465 27.6787C31.608 27.8611 31.5423 28.1046 31.4326 28.3545C31.2098 28.8622 30.8438 29.3225 30.2314 29.459C29.5738 29.6053 28.6672 29.3491 27.7891 28.9375C26.935 28.5371 26.229 28.0477 26.0283 27.8867L26.0225 27.8818L26.0156 27.877C25.9057 27.7944 25.4015 27.4653 24.7139 27.0137C24.0105 26.5517 23.0838 25.9423 22.0977 25.2773C20.115 23.9404 17.9226 22.4042 16.7949 21.4092L16.79 21.4053L16.6855 21.3096C16.4468 21.0794 16.2543 20.7975 16.207 20.5C16.1601 20.2045 16.2371 19.7613 16.8867 19.1914L16.9023 19.1777L26.6152 9.90234H26.6162L26.624 9.89355C26.9351 9.58165 27.2426 9.17123 27.4541 8.77637C27.5598 8.57914 27.6509 8.36896 27.7021 8.16504C27.7499 7.97465 27.781 7.71716 27.6807 7.47266C27.5598 7.17842 27.3004 7.02041 27.0137 6.98438C26.7606 6.95261 26.4777 7.0105 26.1855 7.11133C25.5915 7.31636 24.7482 7.77585 23.583 8.57031L10.6426 17.375C10.6364 17.3785 10.6272 17.3835 10.6152 17.3896C10.5822 17.4067 10.5273 17.433 10.4512 17.4639C10.2989 17.5257 10.0606 17.6059 9.73926 17.6631C9.09997 17.7767 8.11773 17.803 6.80859 17.4102L0.869141 15.5791C0.866732 15.5773 0.863889 15.5752 0.861328 15.5732C0.822417 15.5435 0.769717 15.4994 0.71582 15.4443C0.598838 15.3248 0.521289 15.199 0.503906 15.0869C0.49208 15.0105 0.493051 14.8591 0.726562 14.625C0.977643 14.3733 1.47232 14.0566 2.39062 13.7197L2.41113 13.7119L2.43164 13.7031C10.5135 9.89447 20.2185 6.01593 29.2832 2.30566L33.1123 0.730469C33.113 0.730194 33.1145 0.730124 33.1162 0.729492C33.1204 0.727909 33.1279 0.7252 33.1377 0.72168C33.1575 0.714563 33.1879 0.70328 33.2275 0.69043C33.3075 0.6645 33.4233 0.630178 33.5615 0.597656C33.8439 0.531208 34.1932 0.47957 34.5176 0.507812ZM0.913086 15.6104H0.912109H0.913086Z" stroke="#C0C6E0"/>
	</symbol>
	<symbol id="max" width="36" height="36" viewBox="0 0 36 36" fill="none">
		<path fill-rule="evenodd" clip-rule="evenodd" d="M18.3868 35.8973C14.8538 35.8973 13.212 35.3793 10.3581 33.3073C8.55298 35.6383 2.83667 37.4599 2.58738 34.3433C2.58738 32.0037 2.07163 30.0266 1.4871 27.8683C0.790829 25.2092 0 22.248 0 17.9573C0 7.70954 8.37247 0 18.2922 0C28.2205 0 35.9999 8.0894 35.9999 18.0522C36.0332 27.861 28.153 35.8449 18.3868 35.8973ZM18.5329 8.85777C13.702 8.6074 9.93693 11.9658 9.10312 17.2321C8.41545 21.5919 9.63607 26.9014 10.6762 27.1776C11.1748 27.2985 12.4298 26.2798 13.212 25.4941C14.5055 26.3916 16.0117 26.9306 17.5787 27.0568C22.5844 27.2986 26.8615 23.4712 27.1976 18.4494C27.3933 13.4169 23.5392 9.15439 18.5329 8.8664L18.5329 8.85777Z"/>
	</symbol>
</svg>