<svg xmlns="http://www.w3.org/2000/svg" xmlns:xlink="http://www.w3.org/1999/xlink" width="0" height="0">
	<symbol id="arrow-right" width="19" height="33" viewBox="0 0 19 33" fill="none">
		<path d="M0.438477 0.439453C1.02337 -0.146853 1.97185 -0.147021 2.55664 0.439453L18.0859 16.0176L2.55664 31.5947C1.97185 32.1812 1.02337 32.181 0.438477 31.5947C-0.146212 31.008 -0.146351 30.0563 0.438477 29.4697L13.8506 16.0176L0.438477 2.56445C-0.146351 1.97785 -0.146212 1.02614 0.438477 0.439453Z" fill="#105980"/>
	</symbol>

	<symbol id="email" width="31" height="20" viewBox="0 0 31 20" fill="none">
		<path d="M30.9716 19.6287C30.9885 19.577 31 19.5225 31 19.4651V0.534146C31 0.47642 30.9885 0.421544 30.9712 0.369519C30.9687 0.362393 30.9673 0.355265 30.9644 0.348139C30.9414 0.287206 30.9076 0.23233 30.8651 0.184225C30.8623 0.181018 30.8619 0.177099 30.859 0.173892C30.8572 0.17211 30.8551 0.171397 30.8533 0.169615C30.808 0.121866 30.7544 0.0833823 30.6943 0.0545192C30.6897 0.0523812 30.6861 0.0495303 30.6814 0.0473923C30.6246 0.0220925 30.5627 0.00783945 30.4976 0.00356343C30.4912 0.00320709 30.485 0.00178137 30.4786 0.00178137C30.4725 0.00142504 30.4671 0 30.4609 0H0.539771C0.533658 0 0.527904 0.00142504 0.521791 0.00178137C0.516037 0.00213771 0.510283 0.00320709 0.50453 0.00356343C0.438721 0.00783945 0.37579 0.0224492 0.318253 0.0481053C0.314657 0.0495306 0.31178 0.0520247 0.308184 0.0534501C0.247051 0.0823132 0.19275 0.12151 0.14708 0.169971C0.145282 0.171753 0.143124 0.17211 0.141326 0.173892C0.138449 0.176742 0.138089 0.180662 0.135213 0.183869C0.0927788 0.231974 0.0586161 0.287206 0.0356012 0.348139C0.0327243 0.355265 0.0312859 0.362392 0.0287686 0.369875C0.0115074 0.4219 0 0.476776 0 0.534502V19.4659C0 19.5243 0.011867 19.5799 0.0294878 19.6326C0.032005 19.6397 0.0334435 19.6465 0.0359608 19.6536C0.0593353 19.7149 0.0938575 19.7702 0.136651 19.8183C0.139168 19.8211 0.139887 19.8247 0.142405 19.8275C0.144562 19.83 0.147439 19.8315 0.149956 19.834C0.167577 19.8521 0.186996 19.8682 0.207134 19.8838C0.216124 19.8906 0.224036 19.8988 0.233385 19.9052C0.25712 19.9216 0.282652 19.9348 0.308903 19.9469C0.315376 19.9498 0.32113 19.9544 0.327603 19.9569C0.392692 19.9843 0.464254 20 0.539412 20H30.4602C30.5354 20 30.607 19.9847 30.672 19.9569C30.6821 19.9526 30.6915 19.9462 30.7012 19.9412C30.7235 19.9302 30.7458 19.9188 30.7663 19.9049C30.777 19.8974 30.7868 19.8878 30.7972 19.8796C30.8155 19.865 30.8335 19.8503 30.8493 19.8336C30.8522 19.8307 30.8554 19.8286 30.8583 19.8258C30.8612 19.8225 30.8619 19.8183 30.8648 19.8151C30.9069 19.7673 30.9407 19.7124 30.9637 19.6519C30.9673 19.644 30.9691 19.6365 30.9716 19.6287ZM1.07918 1.7464L10.1582 9.96383L1.07918 18.2468V1.7464ZM19.6875 9.56117C19.6501 9.58541 19.6105 9.60572 19.5792 9.63992C19.5673 9.65275 19.5634 9.6695 19.553 9.68304L15.5002 13.3511L1.93002 1.06865H29.0703L19.6875 9.56117ZM10.958 10.6875L15.1363 14.4693C15.2395 14.5627 15.3696 14.6094 15.5002 14.6094C15.6307 14.6094 15.7609 14.5627 15.8637 14.4693L19.9902 10.7346L29.0678 18.931H1.9221L10.958 10.6875ZM20.7904 10.0105L29.9212 1.7464V18.2554L20.7904 10.0105Z" fill="white"/>
	</symbol>

	<symbol id="search" width="19" height="20" viewBox="0 0 19 20" fill="none">
		<path d="M15.028 3.27031C13.9411 2.29779 12.5387 1.80669 11.0854 1.8875C9.62965 1.96832 8.29243 2.61114 7.32014 3.6974C5.31293 5.94037 5.50472 9.3983 7.74769 11.4055C8.7879 12.3361 10.0885 12.7938 11.3852 12.7938C12.8852 12.7938 14.3792 12.181 15.4558 10.978C17.4628 8.73545 17.271 5.27752 15.028 3.27031ZM14.9408 10.5177C13.188 12.4768 10.1675 12.6444 8.20816 10.8907C6.24884 9.13744 6.08146 6.11719 7.83449 4.1581C8.68383 3.20906 9.85206 2.64752 11.1234 2.57706C11.2139 2.57223 11.3037 2.5697 11.3935 2.5697C12.5675 2.5697 13.6855 2.99587 14.5673 3.78489C16.5266 5.53838 16.694 8.55863 14.9408 10.5177Z" fill="white"/>
		<path d="M8.44746 4.69666C8.32013 4.83895 8.33234 5.05721 8.47439 5.1843C8.54047 5.24324 8.62267 5.27225 8.70463 5.27225C8.79949 5.27225 8.89389 5.23357 8.96204 5.15713C10.1648 3.81324 12.236 3.69858 13.5799 4.90088C13.722 5.0282 13.94 5.016 14.0675 4.87394C14.1946 4.73165 14.1824 4.51339 14.0404 4.3863C12.4126 2.92982 9.90371 3.06934 8.44746 4.69666Z" fill="white"/>
		<path d="M18.7317 6.89374C18.6145 4.93857 17.7431 3.1464 16.2778 1.84671C14.8126 0.547021 12.9307 -0.102248 10.9736 0.0131004C9.0187 0.130291 7.2263 1.00174 5.92684 2.46697C3.3217 5.40411 3.50912 9.86726 6.29177 12.5797L5.10075 13.9385L4.71878 13.5999C4.57627 13.4732 4.35892 13.4861 4.23229 13.628L0.0880214 18.2592C0.0267782 18.3273 -0.00453406 18.4171 0.000531158 18.5085C0.00559638 18.5999 0.046809 18.6858 0.114959 18.7468L1.41695 19.9121C1.48303 19.971 1.56522 20 1.64719 20C1.74205 20 1.83644 19.9611 1.90459 19.8849L6.05439 15.2477C6.11563 15.1793 6.14718 15.0893 6.14188 14.9974C6.13659 14.906 6.09491 14.8199 6.0263 14.7591L5.61763 14.3967L6.80796 13.0388C8.1164 14.0972 9.72276 14.6652 11.4026 14.6652C11.5515 14.6652 11.7014 14.6606 11.8513 14.6516C13.8063 14.5342 15.5986 13.6627 16.8983 12.1975C18.198 10.7323 18.8489 8.84892 18.7317 6.89374ZM1.62025 19.167L0.833069 18.4625L4.51779 14.3449L5.30842 15.046L1.62025 19.167ZM16.3815 11.7393C15.2043 13.0666 13.5806 13.8559 11.8099 13.962C10.0393 14.0712 8.33282 13.4783 7.0055 12.3013C4.26568 9.87117 4.01357 5.66497 6.44372 2.92514C7.62093 1.59782 9.24456 0.80857 11.0153 0.702431C11.1512 0.694142 11.2865 0.690228 11.4217 0.690228C13.0458 0.690228 14.5944 1.27641 15.8199 2.36336C17.1472 3.54057 17.9365 5.1642 18.0426 6.93495C18.1485 8.70594 17.5584 10.4122 16.3815 11.7393Z" fill="white"/>
	</symbol>

	<symbol id="sun" width="20" height="20" viewBox="0 0 20 20" fill="none">
		<path d="M15.353 9.9436C15.353 6.91513 12.8891 4.45117 9.86054 4.45117C6.83151 4.45117 4.36719 6.91513 4.36719 9.9436C4.36719 12.9723 6.83151 15.4363 9.86054 15.4363C12.8891 15.4363 15.353 12.9723 15.353 9.9436ZM5.13347 9.9436C5.13347 7.33771 7.25407 5.21749 9.86054 5.21749C12.4666 5.21749 14.5867 7.33748 14.5867 9.9436C14.5867 12.5497 12.4666 14.6699 9.86054 14.6699C7.25407 14.6699 5.13347 12.5497 5.13347 9.9436Z" fill="white"/>
		<path d="M9.85959 3.63595C10.0712 3.63595 10.2426 3.46454 10.2426 3.2529V0.383044C10.2426 0.17141 10.0712 0 9.85959 0C9.64797 0 9.47656 0.17141 9.47656 0.383044V3.2529C9.47656 3.46454 9.64797 3.63595 9.85959 3.63595Z" fill="white"/>
		<path d="M12.2673 4.07836C12.3125 4.09573 12.3589 4.10396 12.4046 4.10396C12.5587 4.10396 12.7038 4.01048 12.7623 3.85827L13.7923 1.17925C13.8682 0.981785 13.7697 0.760095 13.5722 0.683989C13.3745 0.607655 13.1531 0.706615 13.077 0.904079L12.047 3.5831C11.9713 3.78079 12.0698 4.00248 12.2673 4.07836Z" fill="white"/>
		<path d="M14.8539 5.49781C14.9604 5.49781 15.0664 5.4537 15.1421 5.36708L17.033 3.21006C17.1724 3.05099 17.1566 2.80896 16.9974 2.66932C16.8385 2.5299 16.5963 2.54544 16.4566 2.70497L14.5657 4.86199C14.4263 5.02106 14.4421 5.26309 14.6014 5.40273C14.674 5.4665 14.7641 5.49781 14.8539 5.49781Z" fill="white"/>
		<path d="M15.867 7.30393C15.9219 7.46232 16.0702 7.56173 16.229 7.56173C16.2706 7.56173 16.3129 7.55488 16.3542 7.54071L19.0686 6.6007C19.2686 6.53145 19.3746 6.31318 19.3054 6.11343C19.2361 5.91346 19.0174 5.80741 18.8181 5.87666L16.1038 6.81644C15.9036 6.88592 15.7975 7.10418 15.867 7.30393Z" fill="white"/>
		<path d="M19.6159 9.78906H16.7444C16.5327 9.78906 16.3613 9.96047 16.3613 10.1721C16.3613 10.3837 16.5327 10.5551 16.7444 10.5551H19.6159C19.8276 10.5551 19.9992 10.3837 19.9992 10.1721C19.9992 9.96047 19.8276 9.78906 19.6159 9.78906Z" fill="white"/>
		<path d="M9.85959 16.3066C9.64797 16.3066 9.47656 16.478 9.47656 16.6897V19.5598C9.47656 19.7714 9.64797 19.9428 9.85959 19.9428C10.0712 19.9428 10.2426 19.7714 10.2426 19.5598V16.6897C10.2426 16.4783 10.0712 16.3066 9.85959 16.3066Z" fill="white"/>
		<path d="M12.7624 16.0838C12.6865 15.8863 12.4648 15.7873 12.2672 15.8637C12.0697 15.9398 11.9712 16.1612 12.0471 16.3589L13.0771 19.038C13.1356 19.1904 13.281 19.2836 13.4348 19.2836C13.4805 19.2836 13.5269 19.2754 13.5721 19.258C13.7696 19.1819 13.8681 18.9605 13.7922 18.7628L12.7624 16.0838Z" fill="white"/>
		<path d="M15.142 14.5759C15.0024 14.4166 14.7604 14.4011 14.6013 14.5402C14.4422 14.6797 14.4262 14.9217 14.5656 15.081L16.4566 17.2385C16.5324 17.3248 16.6382 17.3692 16.7447 17.3692C16.8346 17.3692 16.9246 17.3379 16.9971 17.2741C17.1561 17.1347 17.1721 16.8927 17.0327 16.7334L15.142 14.5759Z" fill="white"/>
		<path d="M19.0687 13.3425L16.3544 12.4021C16.1546 12.3328 15.9364 12.4386 15.8669 12.6386C15.7977 12.8386 15.9035 13.0569 16.1035 13.1261L18.8178 14.0666C18.8594 14.081 18.9017 14.0878 18.9433 14.0878C19.1021 14.0878 19.2504 13.9884 19.3053 13.83C19.3745 13.6301 19.2687 13.4118 19.0687 13.3425Z" fill="white"/>
		<path d="M7.23553 3.85974C7.29404 4.01195 7.43939 4.10543 7.59319 4.10543C7.6389 4.10543 7.68529 4.0972 7.73077 4.07983C7.92823 4.00372 8.02673 3.78203 7.95086 3.58457L6.92061 0.906005C6.84473 0.708769 6.62351 0.60958 6.42537 0.685915C6.22791 0.762021 6.12941 0.983711 6.20529 1.18117L7.23553 3.85974Z" fill="white"/>
		<path d="M4.85741 5.36932C4.93328 5.45571 5.03909 5.50005 5.14559 5.50005C5.23541 5.50005 5.32545 5.46874 5.3979 5.40497C5.55696 5.26556 5.57296 5.02353 5.43355 4.86423L3.5424 2.70675C3.40277 2.54745 3.16074 2.53191 3.00168 2.6711C2.84262 2.81051 2.82662 3.05254 2.96603 3.21184L4.85741 5.36932Z" fill="white"/>
		<path d="M0.929945 6.60268L3.64428 7.54223C3.68588 7.5564 3.72816 7.56326 3.76952 7.56326C3.92836 7.56326 4.07668 7.46384 4.13153 7.30546C4.20077 7.10548 4.09473 6.88722 3.89476 6.81797L1.18042 5.87841C0.980452 5.80962 0.762198 5.91544 0.692952 6.11519C0.623933 6.31516 0.729975 6.5332 0.929945 6.60268Z" fill="white"/>
		<path d="M3.63786 10.1721C3.63786 9.96047 3.46623 9.78906 3.2546 9.78906H0.383029C0.171403 9.78906 0 9.96047 0 10.1721C0 10.3837 0.171403 10.5552 0.383029 10.5552H3.2546C3.46623 10.5552 3.63786 10.3835 3.63786 10.1721Z" fill="white"/>
		<path d="M7.73077 15.8655C7.53355 15.7894 7.31164 15.8882 7.23553 16.0856L6.20529 18.7649C6.12941 18.9623 6.22791 19.184 6.42537 19.2601C6.47062 19.2775 6.51701 19.2857 6.56272 19.2857C6.71675 19.2857 6.86187 19.1923 6.92038 19.04L7.95063 16.3608C8.02696 16.1633 7.92846 15.9416 7.73077 15.8655Z" fill="white"/>
		<path d="M4.85728 14.5779L2.96613 16.7347C2.82672 16.8937 2.84249 17.1358 3.00155 17.2754C3.07423 17.3392 3.16427 17.3705 3.25409 17.3705C3.36059 17.3705 3.46663 17.3264 3.54227 17.24L5.43342 15.0832C5.57283 14.9241 5.55706 14.6821 5.398 14.5425C5.23894 14.403 4.99691 14.4184 4.85728 14.5779Z" fill="white"/>
		<path d="M4.13164 12.6389C4.06239 12.4389 3.8446 12.3327 3.64417 12.4021L0.929831 13.3417C0.729861 13.4109 0.623819 13.6292 0.693066 13.8292C0.747915 13.9876 0.896465 14.087 1.05507 14.087C1.09666 14.087 1.13894 14.0801 1.18031 14.066L3.89465 13.1264C4.09485 13.0572 4.20089 12.8389 4.13164 12.6389Z" fill="white"/>
	</symbol>

	<symbol id="vision" fill="none">
		<path d="M22.8894 14.4939C22.8894 14.4669 22.8894 14.4669 22.8894 14.4399V4.37247C22.8894 1.94332 20.936 0 18.5546 0H14.9957C14.7816 0 14.5943 0.188934 14.5943 0.404858C14.5943 0.620783 14.7816 0.809716 14.9957 0.809716H18.5546C20.5079 0.809716 22.0866 2.40216 22.0866 4.37247V12.7126C21.4712 11.8758 20.5614 11.2821 19.5446 11.0121C18.3672 10.7153 17.1631 10.9042 16.1196 11.552C15.076 12.1727 14.3535 13.1714 14.0859 14.359C14.0324 14.5749 14.0057 14.8178 13.9789 15.0337H9.00186C8.94834 14.359 8.73427 13.6842 8.35966 13.0634C7.74422 12.0108 6.75416 11.2821 5.5768 11.0121C4.39944 10.7153 3.19531 10.9042 2.15174 11.552C1.67009 11.8489 1.24196 12.2537 0.894103 12.6856V4.37247C0.894103 2.40216 2.47284 0.809716 4.42619 0.809716H8.0118C8.22587 0.809716 8.41317 0.620783 8.41317 0.404858C8.41317 0.188934 8.22587 0 8.0118 0H4.45295C2.04471 0 0.118114 1.97031 0.118114 4.37247V14.413C-0.44381 16.8421 1.05465 19.2713 3.43614 19.865C3.784 19.946 4.15861 20 4.50647 20C6.5401 20 8.38642 18.5965 8.89482 16.5182C8.94834 16.3023 8.9751 16.0594 9.00186 15.8435H14.0057C14.0592 16.5182 14.2732 17.193 14.6479 17.8138C15.2633 18.8664 16.2533 19.5951 17.4307 19.865C17.7786 19.946 18.1532 20 18.501 20C20.5347 20 22.381 18.5965 22.8894 16.5182C23.0232 15.8435 23.0499 15.1417 22.8894 14.4939ZM8.11883 16.3293C7.63719 18.3266 5.63032 19.5682 3.62345 19.0823C1.64333 18.5965 0.412455 16.5722 0.894103 14.5479C1.13493 13.5762 1.72361 12.7665 2.57987 12.2267C3.16856 11.8758 3.83751 11.6869 4.50647 11.6869C4.80081 11.6869 5.09515 11.7139 5.38949 11.7949C6.35279 12.0378 7.15554 12.6316 7.6907 13.4953C8.19911 14.332 8.35966 15.3576 8.11883 16.3293ZM22.0866 16.3293C21.605 18.3266 19.5981 19.5682 17.5913 19.0823C16.628 18.8394 15.8252 18.2456 15.29 17.3819C14.9422 16.7881 14.7549 16.1404 14.7549 15.4656V15.4386V15.4116C14.7549 15.1147 14.7816 14.8448 14.8619 14.5479C15.1027 13.5762 15.6914 12.7665 16.5477 12.2267C17.1364 11.8758 17.8053 11.6869 18.4743 11.6869C18.7686 11.6869 19.063 11.7139 19.3573 11.7949C20.3206 12.0378 21.1234 12.6316 21.6585 13.4953C22.1669 14.332 22.3275 15.3576 22.0866 16.3293Z" fill="white"/>
	</symbol>

	<symbol id="arrow-left" width="19" height="33" viewBox="0 0 19 33" fill="none">
		<path d="M17.6064 31.5947C17.0222 32.1817 16.0753 32.182 15.4912 31.5947L-0.000975162 16.0176L15.4912 0.440429C16.0752 -0.146805 17.0222 -0.1465 17.6064 0.44043C18.1906 1.02781 18.1906 1.98 17.6064 2.56738L4.22949 16.0176L17.6064 29.4678C18.1906 30.0552 18.1906 31.0073 17.6064 31.5947Z" fill="#105980"/>
	</symbol>

</svg>